<svg id="Calque_1" data-name="Calque 1" xmlns="http://www.w3.org/2000/svg" viewBox="0 0 325.9 84.1"><defs><style>.cls-1{fill:none;stroke:#000;stroke-miterlimit:10;stroke-width:0.5px;}</style></defs><title>Logo</title><path class="cls-1" d="M197.45,160.37l.27-.2.14.35,2.07.27-.21.25a1.59,1.59,0,0,0,.3.06,3.22,3.22,0,0,1,1.44.18,23.11,23.11,0,0,1,2.6,1.26,13.9,13.9,0,0,0,1.43.6,2.57,2.57,0,0,1,.85.45L208.2,165a9.47,9.47,0,0,1,1.67,1.8,2.25,2.25,0,0,0,1,.83c.15.06.25.21.43.36l-.61.36a8.38,8.38,0,0,0,.62,1.13c.06.1.19.2.18.3-.08.68.36,1.11.88,1.54.11.08.16.22.35.5l-1.2-.32.64.8-.5.29.48.17-.51.49c.33.3.8.58.32,1.05-.09.09.07.36.13.58l-.51,0c0,.19-.3.44.18.54.33.06.2.32.16.45a2.57,2.57,0,0,1-.39.58c.4.25-.1.3-.14.45a3.34,3.34,0,0,0-.09.52c0,.6-.1.74-.71,1.32-.08.07-.1.2-.15.3-.15.31-.19.68-.66.81-.09,0-.14.16-.19.25a8.3,8.3,0,0,1-.75,1.2l-.29-.21,0,.5-.93.4.53.39a3.67,3.67,0,0,1-1.27.29,1.65,1.65,0,0,1,.12.25c-.42.21-.71.55-1.11.77a10.45,10.45,0,0,1-1.24.52c-.07,0-.2-.06-.3-.1a1,1,0,0,1-.16.31c-.27.28-.32.28-.82.05-.58.13-.48.81-1.1.93l-.22-.39-.47.92-.12-.67-.77.7a2.89,2.89,0,0,0-2.2.35c-.36.3-.55-.19-.84.08.86.74,1.75,1.47,2.59,2.24a13,13,0,0,1,2,2c.05.08.15.13.22.2a10.9,10.9,0,0,1,1.23,1.22c.68.78,1.5,1.48,2.16,2.28.36.44.67.92,1.05,1.36a2.42,2.42,0,0,0,.84.81.69.69,0,0,1,.45.66c0,.19.5.15.45.46.81.82,1.66,1.61,2.41,2.47a33.59,33.59,0,0,1,2.29,2.49c.4.55,1.2.84,1.5,1.49.61.16.86.7,1.35,1a21.74,21.74,0,0,1,2.38,1.29,1.81,1.81,0,0,0,.76.19c.21,0,.43,0,.64,0a.85.85,0,0,0,.44.05,2.3,2.3,0,0,0-.28-.34,7.48,7.48,0,0,1-1.59-1.93c-.16-.28-.45-.53-.5-.82a2.71,2.71,0,0,0-.4-.88,1.46,1.46,0,0,1-.29-.92c0-.14-.16-.3-.25-.46a2.89,2.89,0,0,1-.38-1.83.55.55,0,0,0,0-.36c-.15-.22-.37-.38-.22-.72.06-.15-.27-.43-.41-.63l.48-.75a1.78,1.78,0,0,1-.47-1.37c0-.16-.14-.34-.11-.5s.22-.25.28-.4a.55.55,0,0,0,.05-.43c-.36-.64-.14-1.31-.21-2,0-.26.13-.55-.18-.77,0,0,0-.17,0-.24s.24-.34.36-.51c-.21-.11-.21-.29-.21-.48,0-.8,0-1.59,0-2.39a1.76,1.76,0,0,1,.15-.5l-.27-.05c-.14-.41.39-.26.53-.43a2.17,2.17,0,0,1-.41-.3c-.09-.12.39-.25,0-.41.35-.27.06-.55-.07-.75a.59.59,0,0,1-.06-.72,1.38,1.38,0,0,0-.14-1.34c.58-.24.58-.24,0-.65l.48-.45c-.48-.23-.48-.23-.33-.63a2.27,2.27,0,0,0-.05-2l.43-.18-.26-.46c-.14-.26-.37-.48,0-.8.11-.12-.05-.42-.13-.64s.56-.39.39-.76a6.48,6.48,0,0,0-.39-.67l.56-.2-.58-.32c.36-.31-.25-.63,0-.94a.49.49,0,0,1,.18-.08l.32-.09-.52-.25a3.39,3.39,0,0,1,0-.92c.07-.22.21-.4-.08-.65l1-.41c-.45,0-.53-.43-.89-.53a.3.3,0,0,1,.05-.24c.12-.12.26-.25.07-.38-.49-.32.28-.62,0-1a.71.71,0,0,1,0-.93c.12-.16.06-.23,0-.38-.24-.49,0-1.07-.31-1.55.32-.18.23-.38,0-.58.4-.18-.11-.31,0-.5.24-.64-.52-1-.69-1.51-.06-.2-.53-.3-.81-.45l-1-.51c-.2,0,.2.43-.32.23a5.42,5.42,0,0,0-1.68-.26,6.11,6.11,0,0,0-1.48.1.72.72,0,0,1-.46,0c-.27-.1-.48-.35-.83-.27-.65.15-.8-.31-1.06-.64.17-.6-.58-.91-.52-1.62.15-.16.65-.28.77-.77s.75-.3,1.12-.47c.22.33.52-.14.66,0,.26.31.4,0,.59,0a2.93,2.93,0,0,0,1.63-.16.11.11,0,0,1,.1,0c.32.12.56.46,1,.29a.84.84,0,0,1,.95,0,.61.61,0,0,1,.74,0l.08-.25c.22,0,.41.26.68,0s.55.11.84.12.57,0,.85,0,.65,0,1,0a7.55,7.55,0,0,1,.81.18c.2,0,0-.48.4-.36.08,0,.12.19.21.36.09-.06.16-.15.26-.17a2.91,2.91,0,0,1,.42,0c.41-.05.85.12,1.23-.14a1.34,1.34,0,0,0,.15.13c.09.06.22.2.26.18.24-.11.45-.32.69,0a.7.7,0,0,1,.65-.17c.27,0,.57-.11.8.12,0,0,.1,0,.15,0,.34-.1.58-.42,1.07-.14.3.17.82,0,1.24.08.06,0,.1.08.17.13l.21-.37c.11.32.37,0,.53.09a1.57,1.57,0,0,0,.51.27c.24.06.43,0,.27-.46a3.7,3.7,0,0,0,.64.46c.24.09.45-.06.66-.16.41-.19.45.22.73.42a1.9,1.9,0,0,1,.21-.35,3.1,3.1,0,0,1,.4-.27c.26.32.73-.09,1,.21a.59.59,0,0,0,.21.12c.29-.33.69.06.87,0s.32.18.52.1a1.28,1.28,0,0,1,.55-.18,8.14,8.14,0,0,1,1.17.28c.33.17.59.66,1.08,1s.41.78.35,1.28c-.6-.17-.59.41-.95.57a2.86,2.86,0,0,0-.83.55c-.11-.06-.29-.18-.33-.16-.34.23-.8.05-1.08.2s-.6-.09-.91,0a9.65,9.65,0,0,0-1.58.26c-.31.12-.65-.33-.84.1-.38-.33-.58-.23-.84.15-.09.14-.61,0-.62.4l-.5-.13-.13.59-.25-.45c-.27.38-.08.56.33.65a1,1,0,0,1-.16.13c-.81.48-.81.48-.43,1.21.21.41.21.41,0,.87l.93.31c-.19.15-.3.31-.42.32-.29,0-.36.22-.53.36s.12.53-.2.71c.33.55,0,1-.21,1.52a1.45,1.45,0,0,0,0,.42l.3-.2s.11,0,.12.09a.73.73,0,0,1,0,.36c-.18.35-.12.64.27.95l-.66.08c0,.25-.1.48.09.75a1,1,0,0,1,.08.7c-.07.56-.08.56.2,1-.08.32-.7.54-.21,1,.08.07-.23.43-.15.53s.21.33,0,.53.14.4.1.42c-.44.2.27.55-.14.73.07.28.05.62.23.83s.14.45,0,.7c-.28.45-.27.46,0,.94a.57.57,0,0,1,0,.51.73.73,0,0,0,.15.85s-.16.25-.16.37.2.27.17.38-.18.15,0,.34c.32.43.11.91.08,1.39,0,.3-.58.1-.46.47a2.1,2.1,0,0,0,.2.58c.13.19,0,.5,0,.72a1.3,1.3,0,0,1-.12,1c-.06.13-.15.3-.1.41a3.3,3.3,0,0,1,.08,2.19,1,1,0,0,0,.22.69c.3.42-.33.07-.22.43s.07.63.12,1-.16,1,.2,1.5c0,.06-.13.25-.28.48l.52.2c-.07.16-.08.22-.11.24-.21.17-.5.38-.31.62.38.47.17.89,0,1.32.6.27.61.37,0,.93a1.1,1.1,0,0,1,.47.81c0,.3-.48.45-.18.73s.08.52.14.78.11.27.16.4a5.65,5.65,0,0,1,.45,1.31,1.48,1.48,0,0,0,.33.81c.55.62.61,1.5,1.41,2,0,.5.56.47.84.68.75.55,1.57,1,2.37,1.52a7.87,7.87,0,0,0,1.53.34c.07,0,.17.06.17.09,0,.26.18.07.28.1a4.2,4.2,0,0,1,1.32.5,1.58,1.58,0,0,0,1.32.33c.46-.14.81.48,1.24,0h.07c.35.47.78.39,1.24.09l.16.38.93-.27.17.31c.74-.21.74-.21,1.66.19l.72-.73.13.66h.13c.2-.52.78,0,1.07-.31.88.34,1.54-.26,2.31-.39a.8.8,0,0,0,.44-.19c.19-.21.44-.15.68-.15a2.54,2.54,0,0,0,.95-.3c.16-.08.42,0,.84,0a1,1,0,0,0,.25-.22c.17-.21.24-.41.65-.43s.52-.25.82,0c0,0,.1,0,.15,0-.06-.48.49-.18.67-.4l-.3-.74.42.29a.76.76,0,0,1,1-.56.75.75,0,0,0,.83-.27l-.2-.19,1-.3c-.08-.22-.35-.51.34-.32l-.31-.3.36-.26.33.4.58-.62v-.67l.15-.07.26.43c.56-.2-.26-.54.28-.75.22-.08.28-.49.4-.75s.55-.26.84-.44a1.37,1.37,0,0,0-.16-.18c-.25-.19.31-.3.06-.51s.08-.35.19-.51c.24-.34.36-.76.75-1a3,3,0,0,0-.24-.31l.85-.78a2,2,0,0,0-.46-.11c-.09,0-.16.11-.26.19,0-.1-.1-.2-.06-.26s.37-.3.08-.54c-.06,0,0-.33.15-.42a1,1,0,0,0,.22-1.46c-.13-.25-.05-.55-.23-.84s.1-.61.42-.82l-.41-.22c.54-.61.29-1.22-.07-1.8.3-.11.68-.22.45-.49s.06-.55,0-.77.37-.29.13-.54c-.09-.09.1-.35.1-.53s.1-.42-.13-.61a3.45,3.45,0,0,1,.35-.44c0-.47-.7-.68-.63-1.16s.19-.78.34-1.35c0-.06-.69-.21-.14-.58,0,0,0-.18-.07-.24-.39-.41.11-.84-.07-1.27-.08-.2.15-.49.24-.76l.54-.07c0-.1,0-.19,0-.22a1.78,1.78,0,0,1-.65-1.34,6.36,6.36,0,0,1-.18-1c0-.21.35-.39,0-.59.39-.24,0-.56.1-.84.14-.46-.23-.9-.1-1.37a4.34,4.34,0,0,1,.17-.4l-.34-.3a4.71,4.71,0,0,1,.38-.57c.21-.26-.28-.43-.1-.72.08-.12-.16-.38-.27-.61l.46-.54-.44-.12-.08-.06c.48-.33,0-.83.3-1.19l.1-.12c-.57-.4-.06-.91-.19-1.35a1.39,1.39,0,0,0-.18-.31c.32-.16.87-.23.44-.75.37-.49.18-.86-.23-1.28a1.32,1.32,0,0,1-.32-1c0-.32-.56-.38-.33-.63a.79.79,0,0,0,.19-.67.33.33,0,0,0-.15-.22l-2.15-1.49c-.08,0-.18-.13-.26-.12a.69.69,0,0,1-.56-.19s-.18,0-.2,0c-.21.37-.42-.17-.68,0-.57.41-1.13.05-1.57-.18a4,4,0,0,0-1.62-.43c-.95-.82-.95-.82-.93-2.87l.57-.09c.25-.09-.47-.27.06-.35.13,0,.23-.22.31-.31l.47.12c.17-.58.53-.34.91-.17.07,0,.23-.09.38-.14l.4.32a2.36,2.36,0,0,0,.86-.21.93.93,0,0,1,.89-.12c.38.18.81-.17,1.15.15a.47.47,0,0,0,.4,0c.41-.35,1,.17,1.35-.17a.11.11,0,0,1,.11,0c.56.28,1.06,0,1.58-.12a.71.71,0,0,1,.23.06,9,9,0,0,0,1.31.08c.42-.14.89.12,1.31-.17.15-.1.52,0,.78.07a4.49,4.49,0,0,0,.87.18,2.94,2.94,0,0,0,.76-.25l.33.29.73-.31c.23.09.34.61.79.19.23.27.61,0,.72.06.49.36.54-.24.84-.24l.16.35.21-.37a3.2,3.2,0,0,0,2.18,0c.13,0,.38.11.57.12a4.3,4.3,0,0,0,.56-.06l.41.35.58-.68.18.41c.28-.12.28-.12.47.25a2.39,2.39,0,0,1,.1-.26s.07-.09.14-.18l.42.2.37-.32c.05,0,.13,0,.13.08,0,.39.33.3.51.25a2.14,2.14,0,0,1,1.41-.09c.07,0,.21,0,.22,0,.2-.37.63,0,.72-.11.33-.35.56,0,.81,0s.46-.25.75-.14a.17.17,0,0,1,.08.06l-.33.32a5,5,0,0,0,1.14-.3c.48-.28.69,0,1,.29l.22-.4.49.19.35.17c.21-.18.39-.46.78-.35a8.09,8.09,0,0,1,.88.37l.24-.37c.3-.06.58.41.88,0,.06.1.11.21.16.31.49-.16.95-.63,1.53-.15.34-.38.67-.11,1,0s.79-.21,1.19-.05c.3-.29.49.23.82.07.15-.07.42-.29.69,0,.05.06.35-.09.55-.13a.58.58,0,0,1,.27,0c.2.6.58.19.93.17a3.2,3.2,0,0,1,1.73.15c.17.09.54.16.59.1.26-.31.47.17.7,0s.4.2.53-.09l.94.27c.09,0,.23.12.26.09.48-.34.85.07,1.27.13a3,3,0,0,0,.51.06,7.6,7.6,0,0,1,2,.4,13.69,13.69,0,0,0,1.38.23s0,0,.13-.11c0,.15.06.25.07.35s0,.24,0,.35.16.08.21.07a3.23,3.23,0,0,1,2.36.66,1.6,1.6,0,0,0,1.84.29,2,2,0,0,1,.29.22v-.76l.13,0,.19.36a1.35,1.35,0,0,1,1.31-.78,3.92,3.92,0,0,0,1.9-.69c.31-.21.32-.2,1-.2a.26.26,0,0,0,.17-.09,1.06,1.06,0,0,0,0-.26c.63.45,1.2-.13,1.81,0,.16-.21.29-.13.48,0a.63.63,0,0,0,.39,0c.17-.58.84.05,1.07-.34a1,1,0,0,1,.28.05c.16,0,.38.16.47.11a1.39,1.39,0,0,1,1.73.25l.49-.63a.56.56,0,0,0,.75.14c.06,0,.25.11.3.22l1-.09c.18.16.47-.12.62.12.27-.19.53-.06.79,0s.52-.16.77-.16.76-.15,1.12.1a.73.73,0,0,0,.56,0c.24-.15.34,0,.53,0a.94.94,0,0,0,1,.06c.19-.11.55,0,.84,0s.48,0,.6.07c.28.24.36-.22.62-.08.1.05.32-.08.5-.13v.23c.06,0,.11.09.17.09a6.75,6.75,0,0,1,1.53.16,1.12,1.12,0,0,0,1.38-.35l.48.41.3-.47c.19.2.28.36.42.43s.27-.1.4-.09c.56,0,1.12.09,1.68.14l.15.37,1.34-.56.13.3a1,1,0,0,1,1,0c.34.15.84-.15,1.19.19a.2.2,0,0,0,.2,0c.53-.47,1-.22,1.58,0a1,1,0,0,0,.63,0,.73.73,0,0,1,.7,0s.21-.1.34-.17l.13.31c.5.35,1-.4,1.55,0,.36.26,1-.14,1.51.23l.13-.32.15,0c.34.08.6.51,1.07.13.1-.08.49.1.74.17s.37-.24.71,0,.83-.18,1.28,0c.06,0,.17-.06.3-.07.41,0,.73.56,1.17.11.35.35.8.14,1.2.17a4.25,4.25,0,0,0,1.38,0,3.47,3.47,0,0,1,1.12,0c.4,0,.85-.18,1.21.15a.42.42,0,0,0,.28,0,2.13,2.13,0,0,1,1.71.08l-.21-.62.43.23c.07,0,.16,0,.19-.05a12.48,12.48,0,0,1,1.16-1.14c.33-.26,0-.61.29-.83a4.18,4.18,0,0,0,.74-.55,1.69,1.69,0,0,1,1.39-.58c.12,0,.22-.14.34-.16s.35,0,.38.06c.32.67.77.13,1.16.11.45.33,1,.52,1.25,1.07a9.68,9.68,0,0,0,.85,1.33c-.11.43-.56.32-1,.49a2.37,2.37,0,0,1,.4.21c.51.46.52.52,0,.95a1.45,1.45,0,0,0-.36.62,1.61,1.61,0,0,1-.86,1.14l.5.18c-.54.3-1-.36-1.55,0l.29.08.15.09c-.3.34-1.05.06-1.16.61l-.52-.23,0,.6c-.35-.1-.59.23-1,.06a3.88,3.88,0,0,0-1.23,0c-.21.42-.21.42-.61.19-.42.33-.54.34-1.28.2a3.17,3.17,0,0,0-.81.1l-.34-.29a1.71,1.71,0,0,1-.62.15c-.27,0-.45.24-.72.1s-.42-.18-.63-.27l-.8.36,0-.26c-.27,0-.55-.15-.74-.07a2.12,2.12,0,0,1-1.76,0,.3.3,0,0,0-.21,0,1,1,0,0,1-1.08,0,.89.89,0,0,1-1,0c-.05,0-.28.12-.43.17s-.25-.13-.38-.36a2.9,2.9,0,0,0-.91.23.65.65,0,0,1-.9-.1.55.55,0,0,0-.36-.13c-.51.06-1-.16-1.53.16a1,1,0,0,1-.63,0c-.44-.09-.85-.34-1.34,0-.12.08-.62-.23-.72-.14-.33.25-.54-.09-.81,0a1.16,1.16,0,0,1-.8-.08c-.22-.18-.3.18-.49,0s-.37-.08-.54-.11c-.15.29.46.27.23.57s.35.39,0,.58a.76.76,0,0,0,.07.19l.38.78-.35-.21-.31-.08c.05.24.21.56.11.63-.32.24.17.45,0,.6-.4.34,0,.27.29.26l-.44,1,.34.1c.14.32-.06.6-.14.91s.09.55.16.83l-.42.15.55.22-.66.09s0,.11,0,.12c.48.27.35.69.35,1.08a.94.94,0,0,0,.26.83l-.6.57.57.21c-.1.38-.47.78,0,1.19.16.15-.41.29-.14.54s-.18.15-.21.26a2.3,2.3,0,0,1-.15.32l-.18.34.69.09c-.19.21-.35.41,0,.59l-.44.41c0,.27.51.55.06.86l.68.5-.23.48.37.37c-.11.53-.79.54-1.07.9.14.14.5,0,.37.46a2.92,2.92,0,0,0,.1,1.89c.23.49.07.7-.31,1a1.28,1.28,0,0,1,.09,1.48c0,.18.6-.13.26.27-.06.06,0,.17-.09.24-.19.25.47.33.15.65-.15.15-.12.44-.14.67s0,.5,0,.74a1.24,1.24,0,0,1-.16.38l.29.25c0,.21-.18.56-.1.61.31.16-.06.35.08.48s.07.18-.1.19a1.07,1.07,0,0,0-.19.07c.45.26-.17.57,0,.74.36.37.14.77.18,1.14a1.17,1.17,0,0,1-.21.57c-.11.18.43.32,0,.5.49.39-.23.23-.24.41l.38.11c.22.48-.19,1,.22,1.49,0,0,0,0,0,.06s-.51,0-.39.3.27.27.41.41a.39.39,0,0,0-.19.55c.19.24-.54.59.15.71-.19.32,0,.55.25.77l-.66.36c.15.41.45.74.31,1.17,0,.09.16.28.14.3-.48.32,0,.64,0,1l-.42.13a1.62,1.62,0,0,1,.2,1.88c-.07.11.11.33.12.49s-.13.31-.1.44a1.93,1.93,0,0,0,.31.48h.52l-.65.61a5.76,5.76,0,0,0,.38.69c.15.23.35.43.52.65a2.68,2.68,0,0,0,1.44.78c.76.2,1.52.37,2.41.59l-.25-.32c.06,0,.15-.09.18-.08.46.23.46.21,1.23.19a9.38,9.38,0,0,1,1.59.11c.35.06.67.15.95-.12l1.32,1.15c.07.44.13.85.18,1.26a.21.21,0,0,1-.05.17c-.08.07-.26.12-.26.18a1,1,0,0,1-.48.83,2.81,2.81,0,0,1-1.25.3c-.4,0-.85-.16-1.2.16s-.5-.32-.81,0c-.08.07-.39.12-.44.21l-.46-.61c-.72.56-1.67,0-2.39.44l-2.34-.18-.09.29c-.69,0-1.32-.59-2.06-.12a.65.65,0,0,1-.47-.1.43.43,0,0,0-.46,0,1.36,1.36,0,0,1-.67.08c-.24-.44-.58.06-.87-.11a1.78,1.78,0,0,0-.93-.06,2.37,2.37,0,0,1-1.32,0h-.1a4.11,4.11,0,0,1-2.2-.18,1.8,1.8,0,0,0-.37.06l.6.25a2,2,0,0,1-.48.05c-.26,0-.62-.24-.74-.15-.3.2-.48-.08-.71,0a.74.74,0,0,1-.21,0c-.21,0,.07.4-.3.3-.19-.05-.4-.07-.59-.11a7.88,7.88,0,0,1-.87-.19c-.28-.1-.52.3-.81,0,0,0-.27.14-.43.16a2.29,2.29,0,0,1-.64,0c-.15,0-.34-.19-.43-.15s-.3.26-.53.07c0,0-.14-.1-.16-.09-.65.37-1.35-.3-2,.11-.46.27-1.11-.15-1.58.24,0-.06-.08-.1-.08-.16,0-.22-.18-.23-.36-.17s-.15.22-.3.06c-.31-.32-1-.36-.92-1,0-.17-.21-.35-.36-.57l.46-.4c-.05-.06-.17-.15-.2-.25-.08-.32-.66-.73.17-.94-.06-.31.15-.42.42-.59a1.05,1.05,0,0,1,1.12-.14A1.19,1.19,0,0,0,322,208l.89.39L323,208a2.78,2.78,0,0,0,.47.11c.14-.3.38,0,.56-.07s.3,0,.44,0,.51,0,.56-.14c.17-.3.44.27.57-.07,0,0,.3.22.44,0,1,.05,1.07.05,1.54-.41.3-.29.56-.6.84-.9l.1-.15c.2-.29-.39-.59,0-.86s.15-.56.21-.85.11-.5.19-.86l-.51-.27c.74-.41.33-1.09.73-1.54a.9.9,0,0,1-.28-.08c-.27-.16-.1-.3.11-.48l-.54-.3c.32-.14.7-.19.51-.51-.33-.55.17-1.06,0-1.59.26-.18.1-.3,0-.52-.16-.4,0-.86-.23-1.3-.13-.24.24-.52.2-.84a1.83,1.83,0,0,1,.1-.78c.11-.3-.13-.7-.24-1a3,3,0,0,0-.53-.07l.57-.32a.19.19,0,0,0,.08-.16.46.46,0,0,1,.21-.47c-.4-.17.09-.33,0-.5s0-.21,0-.25c-.43-.29.09-.81-.38-1.08l.47-.43-.45-.53.4-.12c-.16-.26-.74-.42-.21-.79-.15-.63.2-1.23.22-1.85,0-.3-.28-.2-.47-.37l.52-.27-.5-.46c.27-.09.52-.16.75-.26.07,0,.1-.15.11-.23a.19.19,0,0,0-.12-.13,1.57,1.57,0,0,0-.29,0c.08-.51-.24-1,.19-1.55,0,0,0-.17-.06-.24-.63-1-.65-1.24-.12-2.11l-.5-.49a1.55,1.55,0,0,0,.47-1.38c0-.19-.71-.07-.33-.44s0-.36-.07-.52c.4-.18-.24-.4,0-.57s.14-.39.16-.59-.07-.48.21-.67-.39-.27-.05-.52-.06-.3-.19-.43-.12-.11-.07-.26c.18-.54.15-.55-.27-1,.13-.11.31-.21.36-.34a5.57,5.57,0,0,0,.19-.83c-.49-.28.17-.5.05-.78s0-.45-.21-.67-.31-.62.21-1c.11-.08.18,0,.1-.21a2.33,2.33,0,0,1-.32-1.54,4.91,4.91,0,0,1,.21-.75c.1-.33-.15-.51-.38-.69l.33-.81-.37-.35c.1-.15.64,0,.35-.46-.13-.21.05-.56.08-.84l-.47-.15.45-.19c.14-.25-.51-.45,0-.7a2,2,0,0,0-.39-.32c-.16-.07-.35-.23-.55,0l-.49-.42-.56.44c-.18-.09,0-.57-.53-.3-.24.13-.62,0-.89.13s-.6-.31-.91,0c-.3-.33-.56.17-.89,0s-.51,0-.8-.12a1.44,1.44,0,0,0-.92,0c-.37.22-.83-.06-1.09.17-.42.38-.69-.1-1-.06s-.93-.39-1.44,0c-.13.09-.44,0-.67-.13s-.54-.17-.59.25c0,.13-.3.14-.38-.06s0-.34-.26-.1c-.1.09-.44-.34-.4.14,0,.14-.2.29-.32.46-.48-.62-1.19-.27-1.7-.13s-1.25,0-1.71.47c0,0-.41-.38-.51,0s-.39.14-.56.24-.17.25,0,.35a1.8,1.8,0,0,0,.31.07l-.5.45c.65.58.67,1.4,1,2.1,0,.06-.12.17-.11.25s.17.2.19.3c.05.36.05.72.11,1.07s.38.52.12.83c0,0,.11.08.12.13.09.24.31.44.1.75s0,.46.43.3l-.42.69.33.1c-.37.73.07,1.38.3,2.1l-.84.58.41.12a3.17,3.17,0,0,1-.12.66,2.51,2.51,0,0,0-.11,1.19,1,1,0,0,1-.07.44c-.05.14-.28.35-.25.38.24.21-.17.26-.12.44.12.42-.34.44-.63.6v.91c0,.43-.08.48-.72.69-.2.06-.45.2-.31.46a2.86,2.86,0,0,0,.24.3c-.36.17-.78.25-.71.69,0,.05-.12.18-.16.17-.45-.07-.61.26-.87.43.24.51.24.67-.1.83s-1,.26-1.11.77l-.49-.16c.2.59-.79.54-.76,1.1-.74-.12-1.29.07-1.52.71l-.41-.24-.44.8c-.08-.06-.14-.15-.22-.16s-.43,0-.64,0a.92.92,0,0,1-1.25.56,3.41,3.41,0,0,0-.91,0l-.53.55c-.39-.14-.78-.4-1-.31-.62.26-1.42-.06-1.93.53l-.16-.42c-.23.07-.47.15-.71.2s-.56-.1-.79.14c0,0-.24,0-.36-.05s-.43-.13-.47-.08c-.26.28-.59,0-.76.08s-.62,0-.92.1l-1,.16c-.17-.46-.62.2-.83-.15,0,0-.16,0-.19,0-.47.4-.79.1-1.12-.21l-.15.35c-.41-.28-.46.49-.88.23a7,7,0,0,0-.72-.34c-.2.06-.24.5-.71.26-.16-.08-.5.12-.77.2a1.06,1.06,0,0,0-.2-.31c-.26-.24-.57.37-.77,0s-.43,0-.64-.11-.55.05-.83.09a1.09,1.09,0,0,0-.24.11c.37.35.25.72.05,1.1,0,.07.22.29.13.49s.14.44.1.68a11.21,11.21,0,0,1-.19,1.69,1.25,1.25,0,0,0,.62,1.38l-.42.15c.15.25-.24.41-.12.7a2.08,2.08,0,0,1,.28,1.39,1.85,1.85,0,0,0-.34.1c0,.23.36.47,0,.69s.34.48-.09.65c0,0,0,.12,0,.18a2.67,2.67,0,0,1,0,2c0,.09,0,.22.1.31a.39.39,0,0,1-.09.6l.94.65-.76,0c.06.45-.19.92.19,1.37.07.08,0,.31-.06.42-.36.45-.11.77.39,1.11h-.71l0,.63.59-.19s.07.09.07.14a4.28,4.28,0,0,0,.28,1.65c.31.91,1.09,1.18,2,1.3l.24.05-.25.37a3,3,0,0,1,.7-.22,3.21,3.21,0,0,1,.71.18l.41-.32c.3-.06-.07.49.4.2s.82.09,1.25,0c.19,0,.49.1.58,0,.29-.24.39.24.61.08.2.27.57.07.76.19a2.76,2.76,0,0,1,.78.78c.25.4.17.91.47,1.31-.34.3-.28.84-.82,1-.16.06-.29.16-.44.23l.6.71a3.88,3.88,0,0,1-.62-.12c-.17-.09-.31-.21-.51-.34l-.16.39s-.13,0-.14,0a1.1,1.1,0,0,0-1.14-.28c-.2,0-.46,0-.54,0s-.47.09-.7.12-.49-.08-.7.11c0,0-.23-.14-.37-.19a.68.68,0,0,0-.35-.07c-.11.05-.14.24-.25.28s-.22-.11-.35-.13-.5,0-.66.18a1.94,1.94,0,0,0-.59-.3c-.2,0-.53.17-.62.1s-.43,0-.65-.09a1.66,1.66,0,0,0-.71-.07,3.61,3.61,0,0,0-.64.19l-.24-.4-1.46.56c-.25-.39-.86.07-1.07-.39l-.27.46c-.24-.15-.45-.3-.68-.42a.39.39,0,0,0-.3,0c-.23.34-.54-.19-.77.06-.09.09-.2.17-.3.26a1.84,1.84,0,0,0-.78-.14c-.29,0-.55-.18-.86-.09,0,0-.11-.09-.16-.09a3.23,3.23,0,0,0-1.1.14c-.28.11-.77-.21-1.06-.12a5,5,0,0,1-1.44.16l-.22-.41-.42.56c-.15-.09-.11-.41-.49-.35a2.47,2.47,0,0,1-.77-.16c-.12.24-.3.49-.64.34-.19-.08-.37-.24-.56-.16s-.64,0-.92.18l-.44.23-.25-.46c-.79.54-1.58.06-2.36,0-.17,0-.26-.42-.47-.54a1.06,1.06,0,0,1-.48-1.13,8.51,8.51,0,0,0,0-1,1.2,1.2,0,0,0-.18-.36c.06-.28.9-.15.54-.76l.73,0-.23.36c.26,0,.58.24.66-.22,0-.06.29-.14.43-.12a2.22,2.22,0,0,0,1.44-.06c.07,0,.2-.08.22-.06.22.25.39-.29.69,0s.35-.13.55-.29l.1.32a3.47,3.47,0,0,1,.62-.1,4.15,4.15,0,0,1,.79.23l-.39-.37c.37-.14.8,0,1.16-.33s.67-.36.58-.81a.26.26,0,0,1,.13-.2c.71-.1.58-.6.48-.92s.11-.64.05-1c0-.05.23-.14.39-.23.17-.25-.65.08-.28-.3s-.08-.59.27-.84c.11-.08-.19-.41,0-.67.07-.08-.12-.3-.19-.46a1.24,1.24,0,0,1-.18-.48.6.6,0,0,1,.26-.44c.3-.15-.07-.24,0-.41a3.85,3.85,0,0,0-.06-2.46c-.1-.23.37-.31.08-.52a.27.27,0,0,1,0-.3c.15-.12.08-.17,0-.28s0-.2,0-.37l.3.24c.46-.18-.26-.36,0-.59s0-.41-.09-.63c-.12-.38,0-.81-.23-1.21s.32-.42.4-.63a6.42,6.42,0,0,1-.2-.7c-.05-.26.07-.52-.2-.77s0-.38.18-.57-.08-.28-.09-.42.14-.25.09-.33c-.2-.35-.06-.62.23-.88-.55-.45-.27-.9,0-1.41-.09-.09-.19-.2-.31-.3s-.24-.23-.07-.38.13-.22.06-.39a1.43,1.43,0,0,1-.09-.86c.18-.62.2-.61,0-1.64-.05-.25-.07-.64.1-.78s-.16-.41,0-.6.47-.22.25-.52l-.29.12c-.31-.39.51-.8-.05-1.19l.2-.06.24-.09a1,1,0,0,1-.05-1.21c.15-.22-.07-.5-.18-.75a1,1,0,0,1,0-1l.06-.94.3.12c.22-.28-.11-.47-.26-.49-.59-.09-.31-.36-.2-.58s.24-.28.28-.52l-.42.14a3.4,3.4,0,0,0,.07-2.33c.45-.17.48-.22.12-.41a.27.27,0,0,1-.16-.37c.1-.33.25-.64.39-1l-.69-.93.49-.21c.22-.25-.51-.37-.11-.63s-.23-.45-.06-.7a6.37,6.37,0,0,0,.31-.64c.06.14.1.33.15.33a5,5,0,0,0,.76,0c.2.31-.1.5-.43.77.24.21.44.51.73.6a1,1,0,0,0,1.25-.53l-.82-.26.21-1.22a2.76,2.76,0,0,1-1,.16c-.19-.05-.3-.35-.46-.54l-.39.58c-.11-.35-.1-.58-.23-.69s-.14-.37.06-.52c-.38-.26-.07-.5,0-.77a4.15,4.15,0,0,0-.33-1.41s.55.12.36-.2-.34-.08-.58.13l-.38-1.37c-.29-.14-.7-.34-1.11-.52a.61.61,0,0,0-.4,0c-.12.5-.54.31-.91.31l-.05-.53c-.19,0-.44,0-.56.07a.59.59,0,0,1-.67,0c-.35-.19-.58-.21-.75.21a.47.47,0,0,1-.7.18c-.37-.26-.62-.08-.92,0l-1.49.63a2,2,0,0,1,.19.31s-.05.1-.09.16l-.27-.2-.11.54-.65.08a2.1,2.1,0,0,0,.18.34c.13.14.16.29-.07.35s-.39.43-.63.62,0,.52.17.7.33.48.68.19l.29.3-.63,0h-.5a1.61,1.61,0,0,0-.09,1.25c.12.33,0,.67-.48.83.33.23.55.44.5.79a.83.83,0,0,0,.13.7c.1.11-.11.41-.13.63a2,2,0,0,1-.2.94c-.16.24.12.61-.22.85,0,0,0,.15,0,.17.53.25-.1.51,0,.8l.56.08-.58,1a.85.85,0,0,1,.44.84.86.86,0,0,1-.57.85l.81.75a1.85,1.85,0,0,1-.22.62c-.16.21-.42.35-.08.6,0,0,0,.21-.09.3-.38.5-.38.5.15,1l-.52.23c.15.31.26.51.35.72s.15.37.21.51a2.27,2.27,0,0,1,.66-.09c.12,0,.54.16.16.43l.37.18-.51.69-.15-.94c0,.37-.68.33-.62.78,0,.28-.24.58-.41.95l.88.56c-.12.1-.27.29-.35.27-.5-.12-.49.31-.73.47.19.24.38.48.61.79l-.49.14c.17.48.5.76.12,1.13-.13.13-.22.62.35.66l.37.9-.75-.27c0,.25,0,.44.07.57a1.22,1.22,0,0,1,.06,1.7,1.34,1.34,0,0,0-.12.6c0,.34.09.7-.26,1.13l.61-.21s.08.1.07.14a4.61,4.61,0,0,0-.36.79c-.06.22-.08.58,0,.66.38.23.19.47.08.66-.26.45-.07,1-.4,1.42-.05.07,0,.24.09.33.3.41-.38,0-.2.34l.35.14a2.09,2.09,0,0,0-.45,1.64l-.4.35c.2.45.18.43-.15.88a1.88,1.88,0,0,0-.16.68l-.33.07c.38.45-.25.81,0,1.39l-.43-.34c.1.49-.61.63-.56,1.09-.34.12.17.28,0,.39s-.29.14-.43.21.29.36-.11.44-.07.49-.5.49.12.55-.45.57c-.2,0-.39.32-.61.47s-.12.49-.52.45c-.06.35-.35.51-.71.61l.27.29h-1.32l.68.41c-.78.52-.78.52-1.53.31l0,.67c-.27.09-.49.15-.7.23s-.31.16-.67.34a4.9,4.9,0,0,0,.28-.43c-.51,0-.51,0-.67.63-.16.15-.64-.15-.6.32,0,0-.29.09-.33.05-.27-.28-.59-.06-.91-.17l0,.7a4.62,4.62,0,0,0-.63-.11c-.18,0-.33.21-.58,0-.06,0-.39.17-.56.31a4,4,0,0,0-.49.51l-1.52.36-.18-.39-.13.62a1.86,1.86,0,0,1-.75,0c-.26-.14-.25-.09-.29.11a.24.24,0,0,1-.21.13c-.41-.14-.81.46-1.21,0-.27.12-.61.39-.78.32-.33-.13-.37-.06-.4.22l-.36-.51a4,4,0,0,1-.4.56c-.08.08-.3.17-.34.14a.63.63,0,0,0-.83,0,.17.17,0,0,1-.14,0c-.15-.53-.66-.08-1-.25s-.75.17-1.14.21c-.08,0-.18.06-.22,0-.48-.28-.08.28-.4.21a.7.7,0,0,0-.93-.16c-.23.1-.64-.09-1-.16s-.27.2-.4.39a.94.94,0,0,0-.94-.38c-.19,0-.37.15-.56.17s-.41-.15-.51-.09c-.48.28-.1-.27-.31-.17h-1l0,.2a.81.81,0,0,1-.15,0c-.47-.23-.92-.51-1.49-.14-.12.08-.54.12-.48-.26-.07,0-.17,0-.21,0-.37.29-.36.28-.89.15a1.86,1.86,0,0,0-.56,0l-.1-.25c-.06,0-.14-.06-.19,0s-.24.18-.34.17c-.37,0-.72-.15-1.09-.16s-.58.4-.93.06c0,0-.15,0-.22.06-.38.19-.37-.1-.47-.34a4.35,4.35,0,0,1-.61.2c-.23,0-.47,0-.69.15s-.37,0-.56-.07a5,5,0,0,0-.84-.24c-.27,0-.59.14-.83.07-.41-.13-.38.43-.82.21l-.11-.26a1.36,1.36,0,0,1-1.21.11c-.44-.27-.85.19-1.28-.12a3.28,3.28,0,0,0-1.23-.24l-.18.46-.16-.39c-.25.09-.51.26-.79.06s-.56.33-.75-.08l-1,0a1.4,1.4,0,0,0-.41.05,4.61,4.61,0,0,1-2,0c-.05,0-.27.16-.33.29a1.22,1.22,0,0,0-1.07-.41,4.33,4.33,0,0,1-2.05-.16.84.84,0,0,0-.32,0c-.83,0-1.06,0-1.54-.42a6.11,6.11,0,0,1-1.45-1.42c-.21-.4-.76-.51-1.06-.88-.55-.66-1.25-1.22-1.86-1.84-.44-.44-.83-.93-1.25-1.39a2.27,2.27,0,0,0-.42-.4,10.87,10.87,0,0,1-1.89-2c-.59-.67-1.06-1.42-1.73-2.05a14.11,14.11,0,0,1-1.09-1.36,1,1,0,0,0-.21-.29,17,17,0,0,1-2.11-2.39c-.3-.3-.45-.73-.77-1a13.54,13.54,0,0,1-2.1-2.4c-.17-.22-.68-.13-.63-.6,0-.21-.43-.44-.65-.67s-.39-.48-.61-.7-.52-.43-.75-.66-.39-.48-.61-.7-.36-.33-1-.46a2,2,0,0,0,.2-.19,4.94,4.94,0,0,0-3.44-2.14,5.29,5.29,0,0,1-1-.32l-.21.41c-.56-.28-.56-.28-1.13.2a3.42,3.42,0,0,0,0,1.28c.19.42-.17.64-.21,1l.41.34-.42.12c.22.45.66.87.21,1.41-.1.12.11.43.18.67l-.43.39.51.15-.67.3.81.46a2,2,0,0,1-.22.64c-.19.23,0,.54,0,.57-.35.24.08.41,0,.61a2,2,0,0,1-.07.43,1.86,1.86,0,0,1-.3.45c-.19.22.12.3.14.46s-.09.29-.08.43,0,.4.16.49c.33.22-.31.41,0,.58s-.13.4,0,.58.16.44-.08.63a.2.2,0,0,0,0,.17c.07.15.39.29.13.45s.16.25,0,.41.07.41.11.6-.39.33-.11.53-.41.46,0,.78c.19.15.08.58.09.88,0,.05-.06.1-.09.15-.31.4.34.05.27.26l-.39.64c-.06.33.72.16.42.6a14.39,14.39,0,0,0,.94,1.41,2,2,0,0,0,.85.41,7.06,7.06,0,0,1,1.3.4,1.15,1.15,0,0,0,1,.14c.69-.31,1.37-.07,2.08-.18l.05.29a2.26,2.26,0,0,1,.5-.08,1.92,1.92,0,0,1,.45.18l.16-.31c.43.1.85.22,1.29.3a1,1,0,0,1,.91,1.12c0,.1-.08.22,0,.31s.29.37.27.38c-.29.22.05.36.05.52s-.2.3-.28.45-.2.42-.31.63-.56,0-.44.38a1.53,1.53,0,0,1-.36,0c-.16,0-.4-.17-.46-.12-.35.29-.73-.2-1.09,0-.14.1-.39.07-.58.12s-.42-.41-.72-.09-.41-.11-.62-.09a.75.75,0,0,0-.4.06,1.06,1.06,0,0,1-.95,0,2.45,2.45,0,0,0-1.78.13l-.17-.38c-.18.13-.17.49-.53.35a4.09,4.09,0,0,1-.61-.34c-.14.07,0,.52-.39.32a.71.71,0,0,0-.83,0c-.42.24-.89-.27-1.26-.11a1.49,1.49,0,0,1-1.18.08c-.23-.09-.34-.13-.53,0s-.36-.06-.52-.13-.3.3-.5.08-.52.35-.81,0-.53-.1-.8-.12-.74-.12-.94,0-.64,0-1,.11a4.92,4.92,0,0,1-1.16,0,2.08,2.08,0,0,1-.24,0l.22-.32c-.46.1-.87.18-1.28.25a3.77,3.77,0,0,0-1.11.22.31.31,0,0,1-.15,0c-.41-.39-.88-.23-1.37-.14a1.75,1.75,0,0,1-.59-.08c-.1,0-.19-.1-.28-.09-.25,0-.58.19-.73.11a.79.79,0,0,0-.68-.1,4.59,4.59,0,0,1-1.64.17,5.71,5.71,0,0,1-2.06-.39.75.75,0,0,1-.63-.74,3.31,3.31,0,0,0-.24-.91,2,2,0,0,1-1.84.14l-.08-.48c-.11,0-.21,0-.25,0-.42.31-1,.51-1.23,1,0,0-.32,0-.61,0l-.33.27-.38-.28.3.8a3.44,3.44,0,0,1-.58,0c-.13-.55-.44-.26-.73-.14l-.3.1.71.14c.11.56-.63.13-.71.64l-.28-.64a20.2,20.2,0,0,0-2.43,1,.29.29,0,0,1-.22,0,.56.56,0,0,0-.66,0,.43.43,0,0,1-.35,0,.58.58,0,0,0-.81.09c-.21.22-.4.22-.59,0l-.67.42-.17-.43a2.16,2.16,0,0,1-.54.35,3.75,3.75,0,0,1-.78,0c-.06,0,.37-.47-.15-.28a4.93,4.93,0,0,1-1.45.09,1.14,1.14,0,0,0-.57.16c-.07,0-.35-.13-.49-.24s-.21,0-.31.05a1.05,1.05,0,0,1-.5,0,1.44,1.44,0,0,1-.38-.32.63.63,0,0,1-.55.18,5.47,5.47,0,0,1-1.71-.45,2.16,2.16,0,0,0-.58,0l-.11-.2c-.22,0-.47.09-.55,0a1.18,1.18,0,0,0-.84-.29,1.23,1.23,0,0,1-.55-.18c-.41-.25-.69-.72-1.33-.56a9.75,9.75,0,0,0-.88-.61,15.36,15.36,0,0,1-2.78-1.79c-.34-.29-.76-.52-1.12-.79a.85.85,0,0,0-1.32,0,1.62,1.62,0,0,0-.19.18l.39.34-.34.26c.29.15,0,.22-.06.33-.08.4-.13.81-.23,1.21,0,.1-.24.15-.42.25v1c-.6-.15-.71.56-1.32.41l.25.25c-.06,0-.12.09-.17.08-.33,0-.7.12-1-.16,0,0-.23.07-.35.1a3,3,0,0,1-.5.06c-.11,0-.21-.1-.31-.09s-.32.08-.48.09-.12-.11-.18-.17-.1-.17-.16-.18-.18.06-.27.08l-.39.09a1.71,1.71,0,0,0-.32,0,1.15,1.15,0,0,0-.26.17l-.19-.36a.87.87,0,0,0-.23,0c-.19.12-.5.38-.55.35-.26-.18-.6.06-.83-.16a1.14,1.14,0,0,0-.35-.17l-.36.31c-.23-.06-.58-.32-.52.22L124,212a15.42,15.42,0,0,0-2.5.12l-.3-.26a.45.45,0,0,0-.14.06,1.5,1.5,0,0,0-.23.2l-.08.06c-.23-.27-.44.07-.67,0s-.36,0-.41,0c-.24-.27-.43-.09-.69,0s-.35-.23-.6-.41l-.14.4a2.29,2.29,0,0,0-.62-.1,1.57,1.57,0,0,0-.51.19c-.19-.2.07-.21.09-.4a1.65,1.65,0,0,0-.51.19.56.56,0,0,1-.73.12,1.27,1.27,0,0,0-1.11-.09,4.65,4.65,0,0,1-2.16.05l-.14,0a1.9,1.9,0,0,0-.1.29c-.52-.17-1-.59-1.63-.18-.1.07-.44-.08-.64-.17s-.47.31-.82,0c-.17-.14-.61,0-.93,0a.68.68,0,0,0-.39.07c-.54.43-1.13,0-1.68.07-.29-.29-.67-.09-1-.16l-1.17-1c0-.3-.12-.65.22-.92-.15-.19.31-.6-.31-.62-.05,0-.12-.09-.11-.13A.44.44,0,0,1,104,209c.08-.1.21-.17.28-.27s-.18-.13-.17-.19.12-.15.21-.19a.74.74,0,0,1,.36,0c.22,0,.42.1.81.2l-.3-.33s.07-.1.11-.1a4.81,4.81,0,0,0,.85,0,1.08,1.08,0,0,1,.79,0c.13-.3.45.1.63-.12a.33.33,0,0,1,.27,0c.42.38.83.13,1.22,0s.45-.33.69,0a.23.23,0,0,0,.2,0c.28-.15.51-.46.91-.2l.41-.5.23.41c.12-.33.13-.65.32-.85a2.81,2.81,0,0,1,.83-.43c0-.21-.27-.42,0-.67a.68.68,0,0,0,.21-.47c0-.16-.15-.31-.19-.48s.12-.13.21-.23l-.37-.1s0-.1,0-.13a1.7,1.7,0,0,0,.37-1c0-.41-.19-.85.2-1.22a.14.14,0,0,0,0-.09,1.9,1.9,0,0,1-.2-.47c0-.12.15-.25.12-.36s-.25-.39-.24-.58.25-.42.27-.63a10.43,10.43,0,0,0-.07-1.24,2.69,2.69,0,0,1-.08-.79,3.3,3.3,0,0,0,0-2.06,1.07,1.07,0,0,1,.08-.79c.26-.34-.09-.78.3-1.07l-.4-.15v-1a.81.81,0,0,1,0-.27,2.32,2.32,0,0,0,0-1.93c.19.05.39.16.52.12s.26-.25.46-.47l-.69-.09a.55.55,0,0,1-.08-.15c-.12-.65.24-1.33-.21-2,.4-.48.2-.94,0-1.42,0-.13.09-.31.14-.46l-.36-.11c.56-1.53.56-1.76,0-3l.67-.38c-.5-.19-.61-.4-.25-.79.1-.11,0-.39-.07-.6,0,0-.07-.08-.1-.13.45-.23,0-.55.09-.82a5.36,5.36,0,0,0,.26-.68c-.23-.21-.67-.43-.2-.84-.14-.27.11-.63,0-.81s.08-.69-.33-.9c.4-.19,0-.6.31-.8s-.12-.36,0-.52.35-.35.34-.51a4.55,4.55,0,0,0-.29-1c0-.11-.12-.22-.11-.32a3,3,0,0,1,.21-.57c.07-.17-.25-.24,0-.52s-.11-.76-.36-1.1l.38-.33a.58.58,0,0,0-.1-.12l-.3-.16.4-.34c-.06-.2.15-.5-.1-.83s.15-1-.27-1.37c0,0,.18-.22.3-.24a6.26,6.26,0,0,1,.9,0c-.22-.2-.29-.32-.4-.36s-.24.29-.49,0,.12-.24.08-.34c-.23-.52-.19-1.09-.45-1.59a1.88,1.88,0,0,1-.19-.67,1.17,1.17,0,0,0-1.27-1.11,8.11,8.11,0,0,0-1.84-.2.33.33,0,0,1-.2,0c-.22-.13-.33-.37-.69-.37-.19,0-.33.34-.59,0s-.41.4-.72.09-.45-.1-.69-.11a2.13,2.13,0,0,1-2.17-1.42,2.27,2.27,0,0,0-.17-.5,4.06,4.06,0,0,0-.26-.36l.57-.3c.43.15.21-.54.66-.38l.42-.74c.46.1,1-.16,1.48.15.06,0,.29-.07.41-.15s.31-.23.47,0c.23-.37.44.12.68,0a2.93,2.93,0,0,1,.66-.18c.08,0,.18.06.27.09l.72.31.25-.44.17.42,1.15-.34.4.52.13-.34c.26.08.55.29.79.05s.54.29.81,0,.57-.12.93-.1l-.24.27a1.87,1.87,0,0,0,.56,0,5.62,5.62,0,0,1,1.91-.17c.23-.3.42-.12.69,0a1.1,1.1,0,0,0,.82,0c.27-.18.54-.07.79-.15s.58.26.81.07.46.29.76.11l.22-.39.14.36,1.07-.4-.25.4,1.17-.13c.26.52.78-.35,1,.18l.23-.4c.35.07.71.43,1.07,0l.44.38.24-.45,1.22.66.2-.39a1.72,1.72,0,0,1,1.18.16c.44-.33,1-.08,1.49-.24a.63.63,0,0,1,.22-.05c.18.38.68.22,1,.44a4.59,4.59,0,0,0,.94.47c-.22.38-.22.38.31.6l-.52.61.49.56c-.09.23-.65.24-.48.64a.78.78,0,0,1-.46.27c-.35-.07-.67.31-1,0l-.34.33c-.1,0-.24-.15-.34-.14-.74.13-.77.13-1.22-.15l-.06.26c-.06,0-.12.07-.18.07a6,6,0,0,1-2.06-.18c-.29-.11-.32.14-.33.31-.23,0-.41-.3-.62,0a3.49,3.49,0,0,0-.28.52l-.26-.47a2.21,2.21,0,0,1-.23.6c-.13.17-.22.35-.33.52-.28.43-.13.91-.37,1.35a2.69,2.69,0,0,1-.74,1,1.62,1.62,0,0,1,.41.27c.06.06,0,.29,0,.29-.64.05-.39.53-.3.68a2.86,2.86,0,0,1,.2.58.81.81,0,0,0,.14.2c-.86.37,0,.91-.16,1.35,0,.08.11.19.18.28l-.41.36.46.19a1.05,1.05,0,0,1-.17.29c-.38.41-.37.41-.06.83a.79.79,0,0,1,.19.39,1.06,1.06,0,0,1-.18.77c-.09.12.15.42.17.64s-.11.26-.19.39-.32.43-.47.64c.87.85.88.92.21,1.73.32.22.58.5.47.9a1.85,1.85,0,0,1-.12.33c-.44.66-.44.66.1,1.2-.14.22-.72.34-.22.71a.9.9,0,0,0-.17.93,2.82,2.82,0,0,0,.47.79l-.68.09c.26.28.13.7.53.91,0,0,0,.12,0,.19s0,.3,0,.5l-.35.31.73.41-.5.8.25.43-.54.31.73.41,0,.11-.82-.2.77.64-.64.43.53.58-.27.43.46.45-.43.14.52.5-.73.47s0,.12,0,.16a4,4,0,0,0,.37.33c-.33.21.09.48-.09.7s-.15.3.08.34c.49.09.28.34.19.54a1.46,1.46,0,0,0-.15,1c0,.31.16.65-.16,1a.49.49,0,0,0,0,.52c.26.34.33.64,0,1a.14.14,0,0,0,0,.17c.5.36,0,.49-.22.78l.49.28-.5.39.5.49-.49.46.38.32a2.83,2.83,0,0,0-.38.57.51.51,0,0,0,.26.64.28.28,0,0,1,.15.22,2.24,2.24,0,0,0,.2.94c.15.3,0,.6-.42.78l.52.49-.55.52.39.45L124,204.9l.51.15-.47.19c-.07.21.34.4,0,.6,0,0,0,.15,0,.16.29.08.44.19.42.5s.31.34.44.56a2.24,2.24,0,0,0,.94.66c.08,0,.29-.09.46-.14l.12.29h.84l-.31-.29.56,0s.13-.08.13-.11c-.11-.59.91-.85.58-1.5,0-.05-.1-.09-.17-.15l.39-.11c.06-.18-.29-.28-.07-.52s.53-.55.14-.91c-.06-.05-.05-.19,0-.27.32-.55.14-1.16.23-1.8l.31.22c0-.08.11-.17.08-.21-.14-.29-.51-.52-.2-.88l-.59-.9.27-.05c.1-.38.23-.77.31-1.16,0-.21.15-.52-.34-.52a.45.45,0,0,1-.07-.23c.4-.2-.29-.59.17-.78-.12-.29-.27-.58-.37-.88a4.75,4.75,0,0,1,0-.54c0-.29.48-.51.15-.82s-.07-.59-.16-.87c0-.07-.12-.13-.21-.21.54-.1,1-.2,1.09-.78,0-.07.09-.14.14-.2.27.19.52-.33.79,0,.27-.33.52-.09.78,0a3,3,0,0,0,1,.35.89.89,0,0,1,.84.45c.12.24.44.28.48.45s-.15.37-.18.57a1.67,1.67,0,0,0,.11.41c0,.11.08.26,0,.31s-.2.3,0,.46c.46.34.52.86.7,1.31s.22,1,.37,1.44a10.17,10.17,0,0,0,.51,1.29c0,.12.24.19.37.28-.16.12-.25.23.07.25.06,0,.17.05.17.08a1.34,1.34,0,0,0,.61,1.07c-.05.71.67,1.05,1,1.58a8.51,8.51,0,0,0,1.18,1.23c.24.25.49.5.72.75a10,10,0,0,0,1.42,1c.63.5,1.46.71,2.1,1.18.17.12.21,0,.32,0s.24-.05.27,0c.41.42,1.21.34,1.48.94a1.37,1.37,0,0,1,1.37-.08.93.93,0,0,0,.89.05,1,1,0,0,1,.9.09c.16.11.47,0,.7.07.45.06.88-.21,1.33,0,.07,0,.26-.18.41-.3l.11.28c.12-.05.26-.09.38-.15l.36-.17.13.31,1.85-.5a.51.51,0,0,1,.39.06.35.35,0,0,0,.53,0c.18-.15.24-.27,0-.45s0-.21,0-.31.18.14.22.13a3.78,3.78,0,0,1,.67-.33,4,4,0,0,0,1.4-.48,3.5,3.5,0,0,0,1.27-1.2c.15-.26.49-.24.72-.37s.54-.17.16-.43l.39-.2-.21-.21.42-.13v-.76l.66-.57v-.8c0-.64,0-.64.48-1.21l-.45-.16a1.46,1.46,0,0,0,.18-.35c0-.19-.08-.43,0-.55.47-.54,0-1-.16-1.46-.05-.16-.25-.3-.27-.45s-.45-.49-.05-.76c-.22-.19-.48-.35-.41-.69,0-.11-.11-.26-.2-.38s-.29-.32-.42-.5a8.53,8.53,0,0,0-2.36-2.27c-.3-.19-.59-.4-.9-.59a3.08,3.08,0,0,0-.52-.24,2.64,2.64,0,0,1-.95-.47c-.19-.16-.44-.38-.66-.38a4.4,4.4,0,0,1-1.82-.69,4.86,4.86,0,0,1-1.64-.82.92.92,0,0,0-.53-.21,6.68,6.68,0,0,1-2.54-1,1,1,0,0,0-.46-.14c-.62.12-1-.24-1.5-.45s-.63-.44-.95-.45-.53-.52-1-.42c-.07,0-.2-.26-.34-.34a1.87,1.87,0,0,0-.5-.08,3.93,3.93,0,0,1-1.84-.84c-.29-.24-.74-.2-1.11-.37s-.76-.81-1.45-.74c-.43-.31-.84-.63-1.28-.91-.27-.16-.59-.26-.88-.4a19.82,19.82,0,0,1-2.66-2.08c0-.37.11-.82-.56-.88l-.94-1.23c-.25-.35-.48-.7-.85-1.22l0-.71-.38.29v-.92l-.38-.08c.25-.44,0-.86-.19-1.24s-.27-.53-.09-.83-.52-.43-.07-.7c.29-.19-.37-.47.07-.65a1,1,0,0,0-.19-.3c-.39-.3-.25-.66-.17-1,0,0,.18,0,.34-.08l-.38-.64c.5-.47.5-.47,0-.63a1.22,1.22,0,0,1,.21-1.25c.06,0,.14,0,.19,0s.39.39.58,0-.24-.2-.38-.3a2.13,2.13,0,0,0-.36-.15,2.17,2.17,0,0,0,.56-1.45c0-.08.3-.17.39-.3a1.19,1.19,0,0,0,.17-.49,1.73,1.73,0,0,0-.06-.45c.62-.1.74-.71,1.15-1.09a1.57,1.57,0,0,0-.24-.26H132c-.19-.2-.29-.33,0-.45l-.39-.34s0-.1.07-.12a5.45,5.45,0,0,0,.58-.33,1.93,1.93,0,0,0,.3-.39l.17.14s.11-.05.12-.09-.13-.39.3-.47c.21,0,.32-.46.49-.74l.39.16c.35-.12.47-.31.12-.6a2.12,2.12,0,0,1,.64-.25.67.67,0,0,0,.64-.36.6.6,0,0,1,.14-.2c.52.17.73-.26,1.07-.42a12.3,12.3,0,0,0,1.11-.68,1.89,1.89,0,0,0,.6.15c.14,0,.27-.17.42-.28l.65.4.11-.84a1.58,1.58,0,0,0,.23.14c.41.13.9-.07,1.28.23a.23.23,0,0,0,.2,0c.25-.2.34-.51.85-.46.29,0,.61-.23,1-.39l.17.3a3.11,3.11,0,0,1,.49-.18.85.85,0,0,1,.42,0,1.07,1.07,0,0,0,1.12,0c.33-.17.35.21.55.36l.07-.3.06-.05s.06,0,.09,0c.31,0,.61.08.92.1.12,0,.34-.07.36,0,.16.27.46.15.69.22a1.27,1.27,0,0,0,.88,0c.12-.05.35.11.51.09.53-.09.83.4,1.32.37a2.93,2.93,0,0,1,1.23.33c.76.29,1.52.55,2.26.87a6.8,6.8,0,0,1,2.22,1.37l.71,0,.17.41.45-.6h.9v-.5l.71-.12-.3-.29.61,0,.38-.71c.52.49.92-.19,1.45,0-.33-.45.46-.41.31-.68l.79.27a.17.17,0,0,0,.15,0c.11-.14.2-.29.3-.44.16.1.32.2.46,0l.23.41.15-.36a3,3,0,0,0,2,.28c0-.08,0-.16.07-.25a1.18,1.18,0,0,1,.13-.11l.63.39.14-.33.73.33.23-.29c.36,0,.74.2.91.1a.82.82,0,0,1,1.17.22,8.5,8.5,0,0,0,.91-.27c.09,0,.09-.21.17-.28s.24.11.29.08.22-.07.23.09a.2.2,0,0,0,.35.13c.19-.19.49.17.62-.12.19.2.34.22.61,0a.81.81,0,0,1,.68,0c.27.27.52-.06.68,0,.39.21.37-.26.61-.23.2.36.2.36.52.06s.27-.13.46.24l.39-.14.4-.07c.07,0,.16-.05.22,0,.35.08.59.42,1.08.12a3.67,3.67,0,0,1,1.24-.17l.3.3c.07,0,.14,0,.16-.05a.89.89,0,0,1,1.11-.19.78.78,0,0,0,.56,0,2.08,2.08,0,0,1,1.51,0c.3.09.61-.3.83.07l.15-.31.82.36c.26-.09.1-.5.51-.39l1.89.51c.18-.26.64-.29,1-.45.05,0,.15-.07.18-.05.59.43,1.38-.07,2,.32.05,0,.17.06.19,0a.81.81,0,0,1,.86-.15c.31.19.47-.07.7,0a2.61,2.61,0,0,0,.75.1,1.42,1.42,0,0,1,.77.14c.2.11.26.07.41,0s.19.26.37,0c0-.05.24-.08.27,0,.27.29.65.17,1,.14s.48.29.8,0,.55.23.86,0Zm-29,39.53c-.06.29-.12.57-.19.85s-.07.32-.18.39c-.41.26-.24.55-.09.84l-.35.1c-.09.37.2.82-.45,1,0,.23-.11.48.15.69.07.05,0,.2,0,.38l-.71-.26c.22.43.43.74.1,1.13s-.75.25-1.1.45c.57.26.53.32.13.66s-.91.26-.78.82c0,.06-.24.18-.38.27l-.46.27c.18.1.39.16.42.26s-.15.2-.33.21-.23,0-.27.09,0,.16,0,.24c.44-.33.53.34.89.22l.41-.55.59.42c.38-.49.38-.49,1-.21l.36-.43c.24.38.57,0,.68.1.28.19.39.06.62,0s.58.18.62.13c.25-.31.4.1.6,0l.66-.19a.21.21,0,0,0,.08-.06l-.14-.5.57.25.13-.83c.52.49.25-.16.44-.13l.4.21c-.07-.33,0-.62-.18-.77-.31-.3.25-.41.13-.63l-.06-.08c-.32-.2-.13-.36.07-.51s.21-.16,0-.33a.61.61,0,0,1,0-.53c.09-.21.38-.39,0-.59.27-.2.26-.39,0-.59,0,0,.1-.23.17-.24.28,0,.18-.21.26-.31.2-.26-.4-.45,0-.69-.06-.07-.15-.13-.17-.2a1.34,1.34,0,0,1-.14-.63,3,3,0,0,1,.33-.7c0-.05,0-.12,0-.18l-.39-.33c.06-.06.19-.14.18-.19-.18-.47.45-.93,0-1.42,0-.05.08-.21.07-.32,0-.45.45-1-.22-1.35,0,0,.07-.12.08-.18,0-.5.39-1,.26-1.47-.05-.21-.39-.39,0-.6a4.52,4.52,0,0,1-.39-.58c-.06-.1,0-.24,0-.36a1,1,0,0,1,.08-.25.44.44,0,0,1,.13.28c0,.08.06.15.11.28.32-.45-.05-.81,0-1.22s-.32-.76-.1-1.17l.33-.09c-.12-.35-.59-.56-.21-1,.16-.21,0-.63-.09-.95a.92.92,0,0,0-.09-.24c.55-.17-.13-.54.19-.81s-.23-.55,0-.85c0,0-.07-.1-.13-.12s-.24.07-.2-.21c.05-.44.61-.84.17-1.31.32-.4.15-.7-.25-1l0-.06c.32-.52.09-1.07.14-1.61,0-.12-.21-.33-.18-.36.19-.14.18-.31.2-.5s.41-.3.09-.52.3-.44.1-.62,0-.7-.23-.93.26-.59-.14-.79c.39-.09-.22-.32.09-.46s.47-.29.15-.59c-.07-.06.26-.33,0-.57a.91.91,0,0,1-.23-.73c0-.23.26-.45.4-.68a1.49,1.49,0,0,1-.08-1.47,1.2,1.2,0,0,0-.06-1.06l.41-.1-.15-.28c-.17-.4-.38-.79-.51-1.2,0-.13.11-.31.18-.47s.42-.45,0-.67c.22-.63-.57-1.16-.21-1.8-.34-.11,0-.35-.14-.55s.13-.41.12-.62-.11-.35,0-.59c.24-.59-.2-1.16-.2-1.76,0-.07-.14-.13-.21-.2l-1.26-.45a1.31,1.31,0,0,0-.27-.12.89.89,0,0,0-.95.13,2.91,2.91,0,0,1-1.21.35c-.16,0-.32-.16-.45-.14s-.13.29-.24.31a3.56,3.56,0,0,1-.74,0c.14.28.4.49.09.73l-.35-.3-.58.13c-.17,0-.69.58-.66.69s.2.25.17.29-.36.15-.36.21c0,.44-.26.63-.68.74.18.39.07.8.21,1.18,0,.13-.23.35-.18.46s.33.31,0,.53.24.33.15.54-.21.27-.19.38.32.12.38.22a4.57,4.57,0,0,1,.24.74l-.47.44c.26.28.22.44.28.84.08.67-.36,1.26-.22,1.92-.86.06-.86.06-1.18.57-.11-.06-.3-.18-.32-.16a.79.79,0,0,1-1-.05c-.36-.26-.75-.05-1.1-.18l-.37-.32c-.33-.29-.77-.53-.94-.87s-.29-.57-.4-.86,0-.73-.48-.94l.13-.13c.13-.15.14-.26-.09-.35a.45.45,0,0,1-.26-.2c-.23-.5-.38-1-.66-1.51a9.22,9.22,0,0,1-.86-1.45c-.06-.18-.3-.32-.47-.47a5.3,5.3,0,0,1-1.1-1c-.52-.84-1.54-1.17-2.25-1.81-.17-.15-.29-.57-.75-.38a1,1,0,0,0-.88-.39c-.59-.49-1.57-.41-2.08-1a.91.91,0,0,0-.48-.21c-.32.38-.59,0-.81-.06a2.12,2.12,0,0,0-.67-.16c-.43,0-.86,0-1.28,0a1.71,1.71,0,0,0-.47.15.88.88,0,0,0-1-.23l-1.16.26c-.23.05-.4-.25-.7,0s-.61,0-.87.2c0,0-.23-.08-.37-.14a.74.74,0,0,1-.85.53,1.72,1.72,0,0,0-1.15.84c-.06.48-.51.39-.82.49-.17.31-.25.65-.68.77.09.29-.85.36-.23.78,0,0-.09.2-.16.3l-.72.92.44.4c-.14.15-.36.28-.39.43a1.12,1.12,0,0,0,.15.93l-.73.42a.91.91,0,0,1,.57,1,3.53,3.53,0,0,0,0,.65s.07.09.1.13l.36-.27c-.09.29-.22.48-.17.62a5.52,5.52,0,0,0,1.43,2,9.43,9.43,0,0,0,3.05,2.1c.28.09.69.28.71.45.06.46.53.19.69.38s.06.19.09.28l.45-.24c.17.36.31.68.86.64.21,0,.45.22.67.34.41-.4.42.21.7.2s.52.43,1,.4c.29,0,.65.32.88.56s.74,0,1.06.3a1.77,1.77,0,0,0,1.09.54c.59-.05.76.37,1.15.51A4.32,4.32,0,0,0,152,181c.44,0,.55.65,1.09.4,0,0,.17.08.24.14l.46.39c.16-.16.27-.11.47,0a3.9,3.9,0,0,0,1,.37,10.93,10.93,0,0,1,2.58,1.09,2.25,2.25,0,0,0,1.09.4c.15,0,.4.09.43.18.16.46.7.48,1.07.68s.63.08.78.35.65.15.89.38a7.21,7.21,0,0,0,1,.84,6.62,6.62,0,0,1,1,.82c.39.38.7.8,1.1,1.17a2.51,2.51,0,0,1,.93,1.33c0,.05.07.1.11.14a3,3,0,0,1,.85,1.45,11.82,11.82,0,0,0,.68,1.66l.13-.12c.06.05.15.1.15.14s-.15.28,0,.51,0,.59.36.79a.15.15,0,0,1,.05.13c-.37.31.1.72-.06.93-.33.44.16.72.16,1.09a2.28,2.28,0,0,1,0,.86c-.07.2-.37.45,0,.67-.27.28-.07.52.11.73s.1.51-.16.7C167.92,199.58,167.92,199.64,168.47,199.9Zm30.86-19.82a1.53,1.53,0,0,1-.15-.19c-.2-.3.48-.43.19-.78-.13-.16-.05-.2.46-.69,0,0,0-.13,0-.19A10.88,10.88,0,0,1,200,177c0-.18.15-.35.09-.55.37,0,.39-.1.24-.39a.81.81,0,0,1-.1-.53c.12-.23-.06-.48,0-.58.3-.43.13-.88.19-1.32,0-.21.09-.43.14-.64l-.35-.13c.42-.31,0-.71.12-1,.19-.44-.37-.06-.28-.37l.37-.2c-.15-.31-.28-.54-.37-.79a2,2,0,0,1-.06-.43,1.43,1.43,0,0,0-.1-.43c-.21-.33-.45-.64-.67-1,0,0,0-.11,0-.12.44-.29,0-.53-.13-.69-.19-.32-.68-.51-.65-1a8.13,8.13,0,0,0-1.82-1.51c-.19-.1-.52-.11-.61-.24a1,1,0,0,0-.94-.49c-.4,0-.63-.62-1.15-.23a.66.66,0,0,1-.48-.2c-.16-.34-.43.26-.57-.08,0-.07-.3.23-.44,0-.37.14-.71-.48-1.1,0a1.1,1.1,0,0,1-.35-.12c-.15-.07-.29-.23-.42-.23a3.15,3.15,0,0,0-1.76.22l-.61-.67-.32.48c-.67-.44-.67-.43-1.63-.41a2.35,2.35,0,0,1-.8-.12.4.4,0,0,0-.45.05c-.32.23-.57,0-.84-.12s-.5.4-.83.1c0,0-.1,0-.34-.15.39.59-.29,1.06.11,1.58.05.06-.07.21-.1.32s-.18.48-.08.6c.48.54,0,.92-.24,1.39a.55.55,0,0,1,.4.81c-.11.2.05.38-.1.55s.13.73-.29,1c.13.11.3.2.37.33a.44.44,0,0,1,0,.42c-.25.27-.2.46,0,.72s-.31.44,0,.66a.19.19,0,0,1,0,.18c-.33.32-.2.62,0,1s-.23.28-.45.42l.49.3c-.29.51-.3.61-.15,1.06,0,.1.13.27.08.3-.24.2-.19.32,0,.53s-.15.44-.15.65.3.4.18.65c0,.08-.15.13-.22.2l-.18.18.34.3.26,1.17-.65.36.55.23c-.17.17-.34.28-.41.43s-.1.45,0,.48c.62.25.34.53.18.91s-.39.81.08,1.18c.16.13,0,.24,0,.39a1.31,1.31,0,0,0,0,.85c.18.44.25,1,1.08,1,.07,0,.15.22.23.35l.53-.46c.25,0,.53-.07.53.27.08-.06.14-.16.23-.17a6.45,6.45,0,0,0,1.28-.23,1.07,1.07,0,0,1,1,0c.11.05.34-.06.54-.1l.32.32c.37-.23.61-.65,1.19-.39,0,0,.23-.21.36-.33.14.28.53.24.72.15a3.8,3.8,0,0,1,1.53-.17c.34,0,.7.08,1-.18.44.17.43-.36.66-.35s.55.22.87.16l.19-.05-.25-.54c.66.13,1.18-.13,1.72,0,0,0,0,0,0,0l-.2-.61.33.27a4.44,4.44,0,0,0,1-.92c.22-.4.81-.58.74-1.09Zm102.23-7.22c.16-.21.42-.39.4-.54-.08-.44,0-1-.35-1.28a.75.75,0,0,1-.24-.92,1,1,0,0,0-.15-.91c-.33-.57-.75-1.09-1-1.66a3.6,3.6,0,0,0-1.15-1.34c-.69-.49-1.38-1-2.1-1.41a3.53,3.53,0,0,0-.76-.2c-.35-.12-.8,0-1.07-.3,0,0-.1,0-.15,0-.33.1-.59-.11-.88-.15a6.75,6.75,0,0,1-1.13-.12c-.95-.33-2-.19-2.95-.52-.07,0-.22.14-.33.14s-.38-.16-.42-.11c-.24.19-.38.15-.62,0-.41-.3-.46-.28-.87,0-.13.08-.27.14-.45.23l-.17-.66c-.47.79-.54.79-1.42.24l-.62.51c0,.23.65.5-.09.6-.05,0-.14.11-.13.12.2.3,0,.47-.18.72s0,.52.05.78.28.21.3.33-.13.26-.17.39c-.07.28.12.6-.16.87,0,.05.18.33.29.5s-.33.28-.06.51-.44.05-.25.32a1.29,1.29,0,0,1,.36.14c.19.17-.38.39,0,.57a.19.19,0,0,1,0,.18c-.45.21-.37.65-.6,1,.66.29.67.29.46.82a.47.47,0,0,0,.07.57c.27.33,0,.49-.34.61.27.33.89.32,1,.83-.09,0-.27.14-.3.12-.28-.27-.31.1-.46.13.46.26-.19.63,0,.74.44.25-.21.61.19.81,0,0-.08.21-.12.21-.41,0-.27.11-.12.29s-.09.25-.14.38l.61.34-.38.33a1.62,1.62,0,0,1,0,1.47c-.23.4.23.8,0,1.19l.52.19a4.54,4.54,0,0,1-.48.45c-.33.26.2.34.15.54s0,.24,0,.27c-.34.2-.05.58-.24.74s.37.57-.16.72c.41.18-.05.52.09.62.43.33.34.7.28,1.08,0,.07-.1.12-.15.17l.48.42a.78.78,0,0,1,.95,0l.1-.24a1.79,1.79,0,0,0,.57,0,.53.53,0,0,1,.57.15c.26.27.34-.09.51-.07s.5,0,.75,0a3.52,3.52,0,0,1,.52.12c0-.08,0-.15,0-.19a.32.32,0,0,1,.2,0c.12,0,.3.09.35.05a.56.56,0,0,1,.82,0c.29-.35.56.19.88,0a11.22,11.22,0,0,1,1.09-.49c.36,0,.78,0,1,.15.37.26.52-.09.76-.12.07,0,0-.42.31-.12.1-.13.17-.3.31-.37s.68-.39.89-.3c.42.16.59.1.83-.21.07-.09.44,0,.8,0l-.34-.52a2.46,2.46,0,0,0,.4,0,3.39,3.39,0,0,0,.41-.15l.2.5.12-.92.3.21c.06-.19.1-.36.15-.53h.07c0,.06,0,.13.07.16a1.69,1.69,0,0,0,.29.17c0-.1.12-.2.1-.29a1.25,1.25,0,0,0-.21-.35,4.31,4.31,0,0,0,1.31-1.14.17.17,0,0,0,0-.17c-.37-.28.05-.34.18-.43s.27,0,.41,0,0-.08,0-.12l-.39-.11c.14-.17.37-.16.51-.38s-.06-.5,0-.58c.51-.6.35-1.43,1-1.85.07-.34-.64-.37-.19-.71l-.46-.7c.23-.13.41-.22.57-.32s-.27-.36.1-.45c-.13-.13-.41-.32-.37-.39s.21-.24.07-.46,0-.45,0-.7Zm-25.17-4,.55-.48c-.56-1-.56-1-1.16-1.21l-.34.57c.09.27.59.33.41.66l-.58-.1,0,.14Z" transform="translate(-40.75 -157.9)"/><path class="cls-1" d="M56.28,204.84l.89-.11-.5-.43a2.09,2.09,0,0,0,.84-1.32c.38-.14.94.15,1.22-.31-.55-.56-.55-.56,0-1.21h-1l.26-.48-.32-.09c-.08-.07-.08-.07.44-.51l.46.22A3,3,0,0,1,58.9,199c.09-.25.07-.53.38-.7s0-.17-.07-.25,0-.25.21-.31c.44-.13.11-.3,0-.47l.38-.11c0-.11,0-.22,0-.33.52,0,.38-.35.26-.48s-.13-.34,0-.54.68-.54.24-1c.18-.23,0-.47,0-.68s.23.13.32,0a1.72,1.72,0,0,0,.48-.65c.05-.2-.11-.44-.19-.72l.59-.12c.27-.21-.3-.3,0-.55s.07-.4.08-.6a2.34,2.34,0,0,1,0-.65,2.46,2.46,0,0,1,.44-.53l-.27-.38a1.63,1.63,0,0,1,.87-.66l-.4-.34c.68-.25.38-1,1.13-1.31l-.47-.14c.18-.23.35-.47.52-.7a.33.33,0,0,0,.08-.24c0-.14-.23-.31-.19-.38a4.74,4.74,0,0,1,.62-.65c0-.05.18-.1.17-.13-.12-.36-.25-.71-.4-1.1.88-.08.64-.73.74-1.17,0-.13,0-.17.15-.19s.1-.09.15-.13c-.49-.32,0-.59.07-.88a.64.64,0,0,1,.49-.66.28.28,0,0,0,.12-.29c-.29-.4.16-.75,0-1.19l.47.21v-1.57l.43-.21c-.27-.38.13-.74,0-1.21l.53.27-.22-.53c.58-.27.73-.54.62-1.07-.05-.23-.14-.51.32-.5,0,0,0,0,.08-.07-.48-.38.52-.64.11-1,0,0,0-.12,0-.18.23,0,.34-.06.3-.26s-.16-.31-.12-.44.28-.21.32-.34.27-.34,0-.6.1-.4.39-.47c-.26-.35-.26-.35.23-.53a5.29,5.29,0,0,1,0-.69c0-.2.42-.38,0-.6.42-.23.19-.86.94-.94l-.5-.15c.07-.35.47-.61.4-1,0-.11.15-.24.25-.36a2.76,2.76,0,0,0,.45-1.57,2.14,2.14,0,0,0,0-.67,1.08,1.08,0,0,0-.74-.77,6,6,0,0,1-.84-.54H66.53l-.15-.38-.24.37c-.54-.07-.9-.15-1.26-.17-.72,0-1.19-.22-1.42-.61s-.78-.82-.22-1.34a1.06,1.06,0,0,1,.22-.84c.07-.1.16-.27.24-.27.65,0,.69-.59,1.21-.8l.32.45.25-.47,1.41.09c.16-.15.29-.09.45,0a.61.61,0,0,0,.38.07c.19,0,.38-.17.55-.15s.18.15.4,0,.56.16.69.07a1,1,0,0,1,.7-.11c.11,0,.21.16.36.3a4,4,0,0,1,2.36-.3c.17.28.36.06.47,0s.55-.08.82-.15c.44-.1,1-.15,1.25.34.43,0,.51-.49,1-.37l1.25.31.11-.27a2.12,2.12,0,0,0,1.48.11.92.92,0,0,1,.81,0s.23-.09.36-.15.16.16.27.24.23.12.26.1a2.06,2.06,0,0,0,.33-.33c.33.31.26,0,.31-.14s0,0,.09-.08l.22.41.19-.47c.06.16.06.27.13.31a.5.5,0,0,0,.33.09c.09-.06.11-.2.17-.33.07.06.15.16.21.15.88-.05,1.7.33,2.58.21a4.21,4.21,0,0,1,.58-.11,3.33,3.33,0,0,1,.53.11c.09,0,.25-.14.37-.36a2.12,2.12,0,0,0,.21.15c.25.12.6.37.72.31.29-.14.56,0,.82-.1a4,4,0,0,0,.44-.17,1,1,0,0,0,.16.31c0,.05.19,0,.28,0s.15-.22.3-.06a1,1,0,0,0,1.11.18,3.21,3.21,0,0,1,1.22.17,5.71,5.71,0,0,0,1.25.3c.14,0,.28.15.43.22a.72.72,0,0,0,.36.13,10.45,10.45,0,0,1,2.82.61c.67.11.66.18,1.68,1.06.16,0,.37,0,.58,0s.43,0,.4.28c0,0,.17.05.26.09a8.32,8.32,0,0,1,2.22,1.36c.38.29.91.24,1.22.62a13.53,13.53,0,0,0,1.42,1.52c.49.46.88,1,1.37,1.43a5.2,5.2,0,0,1,1.22,1.6c.07.14.06.51.48.49,0,0,.11.25.13.38s0,.38.32.35c0,0,.12.11.1.12-.31.4.16.65.22,1a1.64,1.64,0,0,0,.53.92.58.58,0,0,1,.11.41.79.79,0,0,0,.33.72c.09.07,0,.29,0,.47,0,0,.08.29.17.34.26.16-.06.3,0,.4a1,1,0,0,0,.27.23,2.27,2.27,0,0,0-.09.66c0,.15.23.27.35.4-.32.21,0,.27.12.39s.1.15.14.22a.25.25,0,0,1,0,.19c-.28.34.21.71,0,1s-.32.41.16.47c0,0,.07.15.09.23.07.25.14.5.21.78l-.37.11a.42.42,0,0,0,0,.12,5.65,5.65,0,0,1,.5,1,1.4,1.4,0,0,1-.17.74c-.14.43-.13.41.14.89a.91.91,0,0,1,.07.61,2.46,2.46,0,0,1-.36.59,1,1,0,0,1,.41.76c0,.3-.56.5,0,.85a1.73,1.73,0,0,0-.81,1.14l.3.09s0,.11,0,.13c-.32.22-.18.57-.33.83.32.27,0,.37-.2.55.06.1.19.24.16.33s-.29.33,0,.62.06.44-.59.74c.16.15.42.29,0,.46-.15.06-.29.15-.49.25.18.08.37.11.43.2s0,.23-.21.3-.13.54-.4.73c.34.53-.28.93-.26,1.41-.36,0,.31.43-.22.45-.12,0-.2.38-.32.57a6,6,0,0,1-.45.58,1,1,0,0,0-.32.89.37.37,0,0,1-.16.25,2.74,2.74,0,0,0-.62.6,1,1,0,0,1-.64.68c.32.2.28.46,0,.56a1.06,1.06,0,0,0-.73.66c0,.05,0,.12,0,.19s0,.21,0,.31l-.23-.14-.07,0c0,.45-.45.24-.73.42l.43.56c-.18.27-.61.36-.82.66,0,.07,0,.18,0,.3h-.49c-.71,1.29-.71,1.29-1.62,1.37l.2.29h-.5c-.06.08-.13.13-.13.18s0,.39-.06.53a3.65,3.65,0,0,1-.78.79c-.34.24-.69.47-1,.73s-.9.41-1,.91c-.55,0-.68.74-1.33.6a.91.91,0,0,1-.09.23c-.15.26-.22-.12-.39,0l-.09.54-.53-.22c0,.83-.93,1-1.45,1.44,0,0-.21,0-.31,0-.62-.14-1,.25-1.49.46s-.67.37-1,.57l.18.3-1-.2c0,.36-.44.38-.69.53a1.51,1.51,0,0,1-.56.16c-.07,0-.15-.09-.25-.16a4.43,4.43,0,0,1-.51.45c-.1.07-.29.14-.37.1a.93.93,0,0,0-1,.13c-.31.17-.81-.09-1,.32,0,0-.14.09-.14.09-.53-.48-1,.25-1.56,0a.82.82,0,0,0-.4,0c-.31.07-.14.56-.59.5a.75.75,0,0,0-.73.26c-.13.17-.2,0-.31,0a.82.82,0,0,0-.49,0c-.19.12-.34.23-.52,0s-.24.12-.48,0a4.2,4.2,0,0,0-1.36-.11.86.86,0,0,1-.08.27.25.25,0,0,1-.19,0c-.34-.27-.87.11-1.17-.26l-.88.4-.18-.43a3,3,0,0,1-.71.18,3.87,3.87,0,0,1-.82-.17l-.2.37a1.26,1.26,0,0,1-.28,0,1.37,1.37,0,0,0-.68-.27l.16.21L73.83,212l-.22.41-.14-.33c-.29,0-.65.18-.84.09A4,4,0,0,0,71,212a1.93,1.93,0,0,0-.41,0c-.19,0-.19.46-.53.21s-.39.12-.51.09a2.52,2.52,0,0,1-.6-.43l-.19.41c-.47-.23-1.07-.06-1.56-.32h-.11a2.16,2.16,0,0,1-1.45.21,8.52,8.52,0,0,0-1.6,0,.72.72,0,0,1-.21,0,2.42,2.42,0,0,0-.55-.16c-.19,0-.37.14-.56.16a1.22,1.22,0,0,1-.7-.07c-.28-.22-.42.29-.6,0s-.33,0-.48,0a1.67,1.67,0,0,1-.4-.15l-.27.29a3.4,3.4,0,0,0-.78-.1,2.34,2.34,0,0,0-.61.31l-.65-.53c-.3.06-.6.11-.88.19s-.37-.37-.74-.12a1.55,1.55,0,0,1-.9.11c-.6-.07-.6-.1-1.07.16-.41-.09-.7-.57-1.18-.15a8.75,8.75,0,0,1-2.7-.19l-.45.37c-.52-.23-.52-.23-1.1.2l-.34-.46c-.29.26-.47.54-.74.64s-.11.58-.57.57c0,0-.07.32-.17.45a16.09,16.09,0,0,1-1.21,1.41,4.53,4.53,0,0,1-.88.51c-.63-.45-1.21,0-1.87.14-.3-.18-.51-.6-1.06-.53l-.72-.94-.22-.29.58-.91L41,213c0-.32.29-.39.37-.57s0-.34,0-.51c0-.45.38-.73.74-1a.47.47,0,0,1-.1-.09.57.57,0,0,1-.08-.13c.39,0,.41-.64,1-.38.14-.34-.09-.76.35-.93s.62-.2,1-.3c0-.14-.39-.29-.06-.45,0,0,.22.22.37,0l.24.31c.1-.13.18-.27.29-.39s.22-.15.25-.13c.7.44,1.25-.13,1.88-.2.43-.05.85-.17,1.3-.26l.18-.43.11.63s.12,0,.14,0a.84.84,0,0,1,1-.27,1.4,1.4,0,0,0,1.35,0c.07,0,.23.08.36.13l.43-.57c.07.17.11.28.16.38a.37.37,0,0,1,.14,0c.2,0,.54.08.57,0,.24-.42.83-.26,1.16-.56s.64-.12,1.06-.19v-.66h.41l-.23.45a.68.68,0,0,0,.21,0c.3-.08.12-.57.59-.52,0,0,.12-.2.09-.22-.41-.34-.1-.42.2-.62S56.69,205.11,56.28,204.84Zm44.17-27.15c.08-.13.24-.28.21-.38s-.25-.2-.38-.29l.47-.18-.49-.71c.44-.23.09-.46,0-.67a13.68,13.68,0,0,1-.55-2.16c0-.08.21-.29,0-.43s.17-.52-.35-.56c-.12,0-.21-.37-.32-.57s-.13-.5-.31-.62c-.42-.26-.44-.67-.56-1a3.48,3.48,0,0,0-.65-1.14,11.84,11.84,0,0,0-3.07-2.86c-.49-.27-.87-.69-1.37-.94s-1.15-.26-1.66-.57a4,4,0,0,1-.51-.25.53.53,0,0,0-.66,0c-.47.28-.08-.28-.29-.26a3.42,3.42,0,0,1-1.68-.29c-.09,0-.24-.1-.27-.07-.46.4-.88-.2-1.33,0a1.84,1.84,0,0,1-.17-.29,2.68,2.68,0,0,1-.64.31,4.89,4.89,0,0,1-.85,0l-.44-.58c0,.05-.07.08-.1.09-.58.33-1.31-.11-1.88.28a.23.23,0,0,0-.07-.06l-.15-.07c-.08.62-.08.62-.61,1.07-.27-.28-.61-.18-1-.14.31.55.31.55-.19.8l.19.19-.53.21.81.1-.93.34.4.62-.8,1,.41.11a3.37,3.37,0,0,0-.42.44c-.08.14.12.35-.23.42s.16.22,0,.35c-.34.29-.08.57,0,.86a.48.48,0,0,1-.33.61c-.16.06-.35,0-.31.25s.11.31.16.46-.63-.14-.23.26c0,0,0,.09,0,.13a1.42,1.42,0,0,1-.14.41c-.09.11-.39.24-.37.28.18.34-.17.63-.06,1s-.31.53-.61.66c-.11.36.12.74-.18,1.07a.74.74,0,0,0,0,1l-.76.17.47.14c-.16.23-.41.43-.46.67a2.12,2.12,0,0,0,.07.78l-.64.42.09.07.36.11a.68.68,0,0,0-.22,1l-.53.07-.42,1.05c-.12.31.3.64,0,.95l-.22-.18c0,.05-.06.11-.1.15-.2.23.42.45,0,.68.28.25-.42.44-.05.69a1.39,1.39,0,0,0-.43,1h-.38c.07.13.23.33.19.37-.37.32-.1.7-.19,1,0,.06-.07.1-.1.15l-.22-.17-.46,1.43.54.47s0,0,0,.08l-.57.07c-.11.48.18.22.47.16-.11.16-.21.35-.24.34-.4-.09-.46.16-.56.38a.68.68,0,0,0-.11.32c0,.36-.12.57-.56.63-.11,0-.2.17-.36.3l.43.05.65,0c-.19.15-.28.27-.33.26-.46-.1-.67,0-.69.3s0,.4.13.5c.29.22-.32.47.07.65a1.83,1.83,0,0,1-.42.26c-.15,0-.26.05-.1.19s0,.24,0,.39a3.57,3.57,0,0,1-.77,1.2c-.07.08-.24.11-.08.26.4.4-.21.3-.29.41a2.31,2.31,0,0,1,.17.42c0,.08-.13.22-.1.25.46.43-.3.32-.32.53.28.56.29.69.09.75l-.31-.21v.81l-.53-.28a5.72,5.72,0,0,1,.32.59,3,3,0,0,1-.43,1.41.54.54,0,0,0-.21.48c0,.24,0,.48,0,.91l-.32-.57c-.2.34,0,.61.07.91s-.3.58-.09,1c.67-.22,1,.33,1.52.51l-.35.4-1.25-.27a1.22,1.22,0,0,0,0-.27.81.81,0,0,0-.14-.2c-.1.06-.27.12-.27.18a1.65,1.65,0,0,1-.46.86c-.1.14-.24.42-.18.46.44.34-.06.58-.07.86s-.72.45-.41.9a1.37,1.37,0,0,0-.29.07s0,.08-.06.12l.38.12c-.13.18-.33.35-.34.53s.05.47,0,.71c0,.08.11.17.12.26.07.65.61,1,1.07,1.47a.35.35,0,0,0,.14.06c.24-.28.32,0,.46.09s.44.12.65.2c0,0,0,.12,0,.17a1.72,1.72,0,0,0,.23.17l.5-.38a9.12,9.12,0,0,1,.94.16c.31.09.59.29.9.35a6.26,6.26,0,0,0,.84-.08,1.31,1.31,0,0,1,.73.09c.15-.29.55.12.7-.18.29.06.58.14.87.18s.78-.31,1,.18c0,0,.18,0,.2,0,.2-.36.49.16.77-.06s.56-.13.85-.22a1.79,1.79,0,0,1,1.29,0c.19.1.33.1.44-.05s.53-.26.85-.24.49-.07.55-.33l-.21-.29.85.26.18-.44.46.6c.07-.48.51-.56.92-.59l0-.6.38.57a2.36,2.36,0,0,1,.51-.42c.18-.07.46,0,.61-.07s.76-.15.83-.56c0-.06.12-.14.2-.16.23,0,.48.07.69-.12a3.82,3.82,0,0,1,.58-.37l-.19-.16c.66-.16.66-.16,1-.63l1.16-.06-.68-.23,1.61-.59V203l.27.48.41-.95c.07.06.09.09.12.1.41.25.15-.28.5-.31s0-.59.15-.77l.4-.22c-.06-.08-.25-.12-.07-.27s.1-.2.15-.3.12-.21.17-.32l.23.15a1.31,1.31,0,0,0-.22.42c0,.09.13.19.27.38l.62-1.36.52.09-.06-.5c.36-.19.48-.59.71-.95a2.71,2.71,0,0,0,.51-.84c.63,0,.26-.52.46-.73s.17-.6.63-.64a.44.44,0,0,0,.31-.21c.08-.28,0-.62.19-.86s.49-.36.74-.55c0,0,0-.13,0-.18.13-.23.28-.45.42-.68-.41-.41.27-.41.33-.65a.27.27,0,0,1,0-.08l-.19-.34a4.21,4.21,0,0,0,.53-.29c.08-.07.15-.28.12-.3-.3-.16,0-.28,0-.42a2.28,2.28,0,0,0,.21-.75,1.75,1.75,0,0,1,.75-1.51c0-.29-.14-.55,0-.66a1.68,1.68,0,0,0,.36-1.36l.4.17c.11-.36-.08-.66-.15-1,0-.16-.15-.43.12-.46.47-.06.06-.22.09-.29a4.81,4.81,0,0,0,.41-2.35s.07-.09.09-.13l.33-.06a5.76,5.76,0,0,1,0-1c0-.33-.28-.64,0-1-.3-.27.16-.59,0-.84s-.14-.19,0-.34c.46-.54.37-.77-.39-1.14l.4-.17c-.07-.08-.19-.17-.18-.23s.22-.39.18-.56S100.6,177.89,100.45,177.69Z" transform="translate(-40.75 -157.9)"/><path class="cls-1" d="M276.39,168.87l-1.16-.42,0-.14.58.1c.18-.33-.32-.39-.41-.66l.34-.57c.6.22.6.22,1.16,1.21Z" transform="translate(-40.75 -157.9)"/><path d="M291.18,221a7.7,7.7,0,0,0-2-.83,25.9,25.9,0,0,0-6-.69c-.54,0-1.08,0-1.63,0a37.65,37.65,0,0,0-5,.37,42.82,42.82,0,0,0-11,2.95,27.85,27.85,0,0,0-7.14,4.19c-1,.84-2,1.72-3,2.55a24.63,24.63,0,0,1-3.95,2.7c-1.35.72-2.72,1.4-4.1,2.06a42.47,42.47,0,0,1-5.87,2.34,10.28,10.28,0,0,1-3.35.56,1.94,1.94,0,0,1-1.51-.62.88.88,0,0,1,.08-1.35,2.19,2.19,0,0,1,.59-.4,10.74,10.74,0,0,1,1.45-.59c2.15-.66,4.3-1.28,6.44-1.94a49.16,49.16,0,0,0,8.13-3.23,12.61,12.61,0,0,0,3.79-2.72,7.92,7.92,0,0,0,1.93-3.66,1.54,1.54,0,0,0-.42-1.45,3.74,3.74,0,0,0-1.69-1,15,15,0,0,0-4.27-.61,16.76,16.76,0,0,0-1.73.06c-1.26.11-2.54.19-3.79.38a42,42,0,0,0-8.23,2.12,37.78,37.78,0,0,0-7.53,3.68A34.42,34.42,0,0,0,224,232.5a3.49,3.49,0,0,1-.35.32l-.12,0a4.5,4.5,0,0,1-.07-.72,8.22,8.22,0,0,1,.24-1.2,9.46,9.46,0,0,1,1.44-2.74,32.69,32.69,0,0,1,3.9-4.57q2-2,4-3.83c2.21-2,4.46-3.93,6.68-5.91,1.24-1.1,2.48-2.22,3.68-3.37a9.18,9.18,0,0,0,1.25-1.53.5.5,0,0,0-.46-.83,5.05,5.05,0,0,0-1.16.15,18.64,18.64,0,0,0-9.64,6.07c-.88,1-1.68,2.13-2.54,3.19a16.37,16.37,0,0,1-3.46,3.29,7.94,7.94,0,0,1-4.79,1.45,14.86,14.86,0,0,1-3.5-.62c-1.49-.42-3-.87-4.47-1.23a16.62,16.62,0,0,0-5.92-.35,23.6,23.6,0,0,0-7.47,2.27,39.69,39.69,0,0,0-8,5.32c-.92.77-1.82,1.58-2.73,2.37-.2.16-.42.31-.63.46l-.07-.07a2.8,2.8,0,0,1,.25-.41c.42-.52.84-1,1.28-1.53a12.51,12.51,0,0,0,2-2.67,13,13,0,0,0,.67-1.7,2.42,2.42,0,0,0,0-1.41,3.05,3.05,0,0,0-1.59-1.77,9.26,9.26,0,0,0-3-1,27.65,27.65,0,0,0-6.23-.35c-1.21.08-2.41.12-3.61.21a35.54,35.54,0,0,0-5.13.8,41.24,41.24,0,0,0-8.73,2.9,26.13,26.13,0,0,0-6.49,4.19,39.09,39.09,0,0,1-5.31,4.12,31.55,31.55,0,0,1-5.28,2.76,3.49,3.49,0,0,1-.83.21.6.6,0,0,1-.68-.41,1.4,1.4,0,0,1-.12-.6,9.66,9.66,0,0,1,.24-1.6,12.38,12.38,0,0,1,1.2-2.86,15.32,15.32,0,0,1,3.17-4,18.42,18.42,0,0,1,5.14-3.18,41.8,41.8,0,0,1,7.26-2.17c1.79-.41,3.58-.8,5.36-1.24a12.65,12.65,0,0,0,4.06-1.72,5.09,5.09,0,0,0,2.22-5.09,12.24,12.24,0,0,0-1.61-4.69,22.31,22.31,0,0,0-5-6.06,19,19,0,0,0-6.79-3.93,10.64,10.64,0,0,0-6-.2,16.68,16.68,0,0,0-5.15,2.52,61.59,61.59,0,0,0-6.19,5.21c-1.08,1-2.16,1.92-3.28,2.83a6.47,6.47,0,0,1-2.55,1.35,1.93,1.93,0,0,1-2.27-1c-.12-.23-.23-.45-.37-.67a1.22,1.22,0,0,0-1.06-.59,2.19,2.19,0,0,0-1.62.74,11.7,11.7,0,0,0-1.82,2.27c-1.6,2.46-3.16,4.95-4.79,7.4a53,53,0,0,1-7.61,9.16,42,42,0,0,1-4.28,3.62c-1.76,1.27-3.58,2.48-5.37,3.71a15,15,0,0,0-2.43,1.93,2,2,0,0,0,0,3,7.07,7.07,0,0,0,2.8,1.72,11.1,11.1,0,0,0,4.71.63,6.48,6.48,0,0,0,3.39-1.16,17.08,17.08,0,0,0,3.07-2.82,39.33,39.33,0,0,0,3.93-5.82c1.07-1.81,2.13-3.64,3.25-5.42a13.52,13.52,0,0,1,3.57-3.89,6.8,6.8,0,0,1,4.36-1.45,10.44,10.44,0,0,1,1.47.14,4.28,4.28,0,0,0,3.89-1.31,5.66,5.66,0,0,0,1.57-2.87c.28-1.24.49-2.5.7-3.75a14.09,14.09,0,0,1,.74-3,4,4,0,0,1,2.76-2.51,5.56,5.56,0,0,1,2.72,0,23.33,23.33,0,0,1,8.31,3.75,15.17,15.17,0,0,1,3.15,2.89,5.81,5.81,0,0,1,1.06,1.9,1.7,1.7,0,0,1-1.22,2.34,15,15,0,0,1-1.74.39c-1.67.26-3.36.45-5,.73a28.81,28.81,0,0,0-9.34,3.27,34.86,34.86,0,0,0-8.42,6.53,34,34,0,0,0-3.2,3.9,19.35,19.35,0,0,0-2.79,5.42,5.64,5.64,0,0,0-.28,2.51,1.22,1.22,0,0,0,1.28,1.25,8.54,8.54,0,0,0,2.52-.25,80.44,80.44,0,0,0,9.74-3c1.74-.63,3.47-1.29,5.21-1.91a4.8,4.8,0,0,1,2.25-.29,1.2,1.2,0,0,1,1.11,1.47,13.52,13.52,0,0,0-.08,1.42,1.5,1.5,0,0,0,.42,1.07,3.22,3.22,0,0,0,1.23.89,11.24,11.24,0,0,0,3.92.76,29.41,29.41,0,0,0,5.14-.21,45.28,45.28,0,0,0,8.52-2,64.72,64.72,0,0,0,7.79-3.26c1.78-.85,3.54-1.73,5.32-2.59a6.23,6.23,0,0,1,1.08-.43c.41-.12.61.05.62.48a1.29,1.29,0,0,1-.05.4c-.09.33-.21.65-.31,1a22.07,22.07,0,0,0-.66,2.34,2.59,2.59,0,0,0,1.48,3,8,8,0,0,0,1.72.62,19.41,19.41,0,0,0,5.27.26,36.91,36.91,0,0,0,5.65-.77,38.24,38.24,0,0,0,8.69-3,54.28,54.28,0,0,0,5.1-2.88c.2-.13.42-.25.63-.37l.07.09a1.65,1.65,0,0,1-.19.27c-.54.59-1.11,1.15-1.63,1.75-.72.84-1.42,1.69-2.08,2.58a4.86,4.86,0,0,0-.65,1.26.94.94,0,0,0,.59,1.32,2.77,2.77,0,0,0,.95.09,12,12,0,0,0,2.91-.71,58.27,58.27,0,0,0,6.13-2.63c.21-.1.43-.19.7-.3.08.17.15.29.2.43a2.83,2.83,0,0,0,.76,1.19,5.3,5.3,0,0,0,2.37,1.23,17.36,17.36,0,0,0,4.54.54,34.88,34.88,0,0,0,4.57-.22c1.39-.16,2.77-.31,4.14-.56a35,35,0,0,0,9.86-3.47c.41-.21.83-.4,1.25-.57a4,4,0,0,1,1.6-.28.9.9,0,0,1,.94.93,4.87,4.87,0,0,1,0,.66c0,.34-.05.68-.05,1a1.83,1.83,0,0,0,.54,1.33,3.58,3.58,0,0,0,1.46.9A11.72,11.72,0,0,0,257,242c1,0,2.08,0,3.11-.06a31.74,31.74,0,0,0,6.13-.92,53,53,0,0,0,12.5-4.71,46.14,46.14,0,0,0,9.89-6.72,19.08,19.08,0,0,0,2.51-2.73,7.51,7.51,0,0,0,1.3-2.47A2.73,2.73,0,0,0,291.18,221Zm-106.69,3.54a5.15,5.15,0,0,1-.94,1.68,19.14,19.14,0,0,1-2.91,2.85,42.78,42.78,0,0,1-9.22,5.78,19.16,19.16,0,0,1-2,.68.93.93,0,0,1-.24.05c-.49,0-.68-.2-.54-.66s.26-.63.39-.94a3.6,3.6,0,0,0,.38-1.57,1.23,1.23,0,0,0-.84-1.22,10.36,10.36,0,0,0-1.39-.28l-3,.45a10.41,10.41,0,0,1-1.47.12c-.54,0-.75-.31-.55-.8a4.13,4.13,0,0,1,.58-1,16.79,16.79,0,0,1,4.5-3.94,21.82,21.82,0,0,1,6.41-2.8,29,29,0,0,1,5.33-.82,15.45,15.45,0,0,1,3,.13,4.41,4.41,0,0,1,1.92.63A1.34,1.34,0,0,1,184.49,224.58Zm30.86,3a6.2,6.2,0,0,1-.74,1.27,16.12,16.12,0,0,1-3.63,3.26A22.41,22.41,0,0,1,201.2,236c-1.18.16-2.36.25-3.54.38a14.25,14.25,0,0,1-3-.4,5,5,0,0,1-1.16-.51,1.27,1.27,0,0,1-.57-1.5,4.38,4.38,0,0,1,.8-1.58,17.21,17.21,0,0,1,3-3,45.57,45.57,0,0,1,8-5.22,13.08,13.08,0,0,1,3.15-1.27,2.24,2.24,0,0,1,.51-.07c.45,0,.59.2.46.62a4.45,4.45,0,0,1-.22.57c-.14.36-.29.72-.43,1.09a3.25,3.25,0,0,0-.12.54,1.37,1.37,0,0,0,1.14,1.66,5.84,5.84,0,0,0,1.72.08c.92-.09,1.84-.29,2.76-.41a6.56,6.56,0,0,1,1.17-.06C215.34,226.88,215.55,227.18,215.35,227.62Zm21.26.53a7.23,7.23,0,0,1,1.91-2.1,14.46,14.46,0,0,1,6.22-3,10.22,10.22,0,0,1,4.3,0,2.8,2.8,0,0,1,.88.35.88.88,0,0,1,.4,1.15,3.58,3.58,0,0,1-1,1.43,14.66,14.66,0,0,1-6.19,3.68,18.72,18.72,0,0,1-3.87.71,17.43,17.43,0,0,1-1.9-.29C236.38,229.77,236.05,229.16,236.61,228.15ZM283,224.42a4.75,4.75,0,0,1-.38.94,11.44,11.44,0,0,1-2.5,2.87,42.7,42.7,0,0,1-8.06,5.6,17.33,17.33,0,0,1-3.77,1.65,2.88,2.88,0,0,1-.65.13c-.48,0-.67-.18-.54-.65.05-.19.14-.38.21-.57.17-.43.36-.84.49-1.28a1.49,1.49,0,0,0-1.3-2.05c-.28,0-.57,0-.86-.06V231c-1,.16-2,.32-3.07.46a11.17,11.17,0,0,1-1.42.11c-.54,0-.73-.28-.56-.8A3.36,3.36,0,0,1,261,230a12.52,12.52,0,0,1,2.86-2.95,22.57,22.57,0,0,1,11.38-4.73,27.93,27.93,0,0,1,2.89-.25,10.09,10.09,0,0,1,3.32.37,4.61,4.61,0,0,1,1.1.52A1.2,1.2,0,0,1,283,224.42Z" transform="translate(-40.75 -157.9)"/></svg>